<mxfile host="app.diagrams.net" modified="2023-03-08T11:14:05.407Z" agent="5.0 (Windows)" etag="hycH17XdpEyMCxxGL5Gs" version="21.0.2" type="github">
  <diagram id="C5RBs43oDa-KdzZeNtuy" name="Page-1">
    <mxGraphModel dx="1434" dy="782" grid="1" gridSize="10" guides="1" tooltips="1" connect="1" arrows="1" fold="1" page="1" pageScale="1" pageWidth="827" pageHeight="1169" background="none" backgroundImage="{&quot;src&quot;:&quot;data:image/webp;base64,UklGRiy5AABXRUJQVlA4ICC5AADwGwOdASqAAoACPkkijkWioaEio5Ha6FAJCWdsywdhlNDkGwIBuqgWCXZkWHF9zN2m/BM8r/yWvz0BONfn0eZq2NdphQ1Emf+pQ37wcih/Wb15+Vf+jzb/P/nA8c/0Pru77fxngb/Wv3Lnv/z/CH9l/tvQXfP+yv6PoQe/3430Kf3PPP+T9QbzK/9Pjm/mf+x+3vwGf0H/B//H/N/4r9sfqT/5/NL+5f8/2IfLs9pn7q//f3k/2fIUjnx3Q2Zy62O+POuj7E9t0ZTF09P6dJ6HZox1SzyT9m5Lh8pWYzJRPRMrr/r4QIkLB2pyJJ8SaBy0S/5lraLUpv0cmLThH1mXy2OWhS/usYL6uWNB7VWquI3tZby2ZArWwaC4b5rGQhytU1lGCi238Oj4xicUr3Ac+aoKja6QVHNef3Af3T8vuaC7xIhBZInnHK9MhcD1Ec0jy3AjEzAfHhx9qfPSx5E/uK6rQmDh7CCpTYSTU1VPAhSAp056S+X/w8+SdRH/22T5RKg8m+H36BfHxt8c3SVzp6cOeKzM55BRTk2AT4/b17HdbpmvkCBFt28jrEI3tQ0MPHg2+DdpGAHptwc1IUJ0akNTEYMCdwk6Tq2YeaPHpizT3whN7HuEa3QKkFbwASrxXwLNlp3l1b7yYuKKYI8ZqeSahXZgQ7R4yluTxGtJSYc+JiYCB/TbOEnbHyKoiABIfTA8eZrEJlU4JGbQWyo0Y49fJ7m2A8gtPXMWkeyG+HgydE7mOoIj5nN7fo2Ev0yjLzPbiL6TFDG0tQDAHJb0sjdijcyzUmM+ga7cgk9h14IZuwIPCzXzMVD4ixSFDPWATb5KAAoUql5psuM403DjJyWfge7yv4OVvK03Y/IcElLfYYQGLrhxzrRuWsEQnh/C1Px8Lig1PhHQP1myovZEVTK0Q3iVEZCjxvV4S9YlZWNpt+L11fXbQZZ3apXvJefxWrcp4IonS09cvSvpuC39/+1DpACeStokB1eZRazpwAhGUeHV/UmFmylbTlrJOaOE/ae4+aXh4q69c0SDi1OH4itbEmbnoIcVzXcDXGsScid9e6A9Yyq6gRDcbIVi8CE0eAOhJ0uRmbe5BCtDK3kg/98DWSUXmNq5Ia073AbggNuepXSxsupRV3VyKXHeQ86klhetS3zXJh2KvivgOeUZI96StLaNe/QLyXKiSUcI6950CaHSkBmndcm/hfuB2jR/XPhoeXVD8nuMF/QbYJCdKWEDNx3SdQPliLynjz3M3hHa3B2PdnjvNPKJepoP3KD41Gc9WgDJ7DfX99P4hVNs44F8FC9IeSp4eqw1Spx6SxqiUIpz0xVOxePhW34+KnmzRAg4VHRXczhRJHQyoVnQTYpmGC2MJzeWHy3ajcz6+qhEkE7Jo0nQF2czFf+H3IClw22Vi4dC+3j900wzzMUVt31lskKMtsMgjiTWCKSudeD9W6LJrJnDSMbxVcVHpiOGOS/6kefrcBkf8l7EN3xQ98zatzbCQ4NaCFNVWmb78eYsinGvG4Ft8yX8lGkQsnDLMiEIqV5DudGej9cN9e1JQFJlFElmkzUqjc0vE8gCOgBzdHByn9DeKgyGMWg26uHNELZ7KPqjWGn4S6hN+DubOqmEtuQ5vsLv/VRjdJYYKt8/bE+FUJYGXmjYe2O8nXuK+7gPZtj7Pp+LZhi0BlaZlEvxUeBLBC+iXADTnFES9KfsVBdMrDCdvmGFojx4CMC9DKfzHo+e3rCgsBvyssWMayRKLhkPNN4QJvzUdyHc+p1c0rtWSE9nVCuv5p5H1IKDUcUOYTS96fM8xtC4sggzIWPJdMjXPXBcjmjzUUzcdxucELQB5edMLnxxK1NGTUdbwDZgGrl6Zuo1mhdHCCnzEMk4kz+ysOM0djRlRBehO+yYH5/38H2BF2ngBWGdjtKiMNBqnmyxH2sQegS89EsLbVsLQebWvL9m4B4EOcD7NUSOZ28/liDdOxSHV9CViUP4IGFplAg+q86tXPTF+XbbZeuSBteKT+J//2GWdtnYRRnwPY0suB3FsqtFcoOR6LJJ0w7O1b9trRq+8DfbgBP/mu+guRSByIr3yt0HPPaLRPTwes9B/e4BgsykHCANgvZ1q310ODaG0ewDS/gceDP7zEFiF2P46oTZN7TD91CdOhN3AKPtqqSir4RLAjTLtr48kBFbhPjgTYF4pk/G0hDHXUif1YZ9G03UEn/CTr0rGxLmpi/tK3uYkvDaUTj5hbunxbl9u7WukJyh7Ki7OYX76i3acaH76S+mvKAT4aW6YrybB16r0BeOfTzSz8ZTwVVnS/XbOxwUN3rheohCNQVaSaL7ikpiMI3D/xyJ6JSZB0RwafeY20p87JCcQ3/TkozPJYgKNyrn1AQuVA0mnYsHXL0TPKz2TXdVtjtehrFJjqdCJACzEza6eEh7/BmhaF34gHeFaHm2Nwv/q3djjuIL4Vo+sQOxuF9xzA4LfcHmXw8qcPIIy8dHLHX4LBUvO35lj3vtqM6MdUKpqIpKS+/zrydjRuaGdl42sfwzqs2RNNIVyUbdFXkhTUFHoXsqFliw7tVRf9C7uhw9gaVLZRX/dR0C9VMTjrINwAqEz7s0Q/fN8vPXktmp4rFXa1M7dKp2y2fviC6bO20MfPMZxArzh1ckHmRxLpjYPcZz0cVERCw6d1z5E6lejUkLnZQkwa2J4eLeMCm4+Pny9RcAfMS+wUneUWMxdtBZyGfnPEjifCnIiZcQ7pvn71dJYbAxSAOuIzxzyx7Y48y9JvBfR22x4hNeUnrHXEZiEVdsDbkrZyzTtLfMnDChrCHorhTPy24rhVEiNp/B8FrNFVUvqf2LsiuGtz1iHWCiP76/58am6A7Amp9QznBlFVMXX5Wip/SJ3qrAjZLm/E3aVrsJjehjMLkde3k+zSSLS7zBQ7kLGwwXfAY1e8GNe4mQSSVRjJ9wZ4xAkFB16ESZQq/aRrP+Iad9Jnhc6R365plrZ1aEGnZr3U4y8Yxlp6D33nPbRZ2DcaCIbXfZ5Ak38vVBm/XYd8OYmY67dsgOiXFu0GYLu+2XgB8dSITHpCwwOo0hU9apvsT+Cj+njf3WHAcSqTnV8MTgrxa4x3VldB5eYS057AYWevdh73oRcuBjP/0JehCh5H1FuAQJODkjnuYGFXmH1R2/f291RRkToEK5q8HfIoAv2kUL/IgbuhnuA++GqEdjPir9mTFooVAyubv8hy0fUoesumLaYXrtC9PWrWuZ4ygEOoECUbM3Lq6jDYsQGvP74oMLZrTjco2KpHLy/lsOHxyjk+P0YXI5GktAhS066WY1eOZyFmLPzKhND5srcROR7ZwHbp11AF7W8AFTI7yjtmYMEyjF4DGxzlUFT5b0DAKzdrCMCK6B4+u8/C1d4DI602fKqv2gQvl506NIWmavXhY+JwAC6aXxUr+1jH3uVbpbCM8UTEjgHzzR3BQIbvVTUNV5S4QMF7PjvH9Yr52yaf6CzoMO54Dv9ogZ6Zq8UxEYKCkOR3uCYTWgyVuBr07UtsZ3XphGOZ7Hl98g5XO/Jgay5ANxjkBhI1g2eAIJpwiTXrzlpyKkXuHYs8re06P5BcwuyvD1EcwM9EHOP4mnmMLL3s5dp1cVAfZJpt51JrAFIdEzFW6nokYvKtcalolyOuHXrDh/iwTVWc/DpiPjZQKnqgwZXvTvBYzycuomJG2q9m53iXJfFCniWGXrejKm6t6hc0sJKQz48u5u6CdjcvJpC1Px347T87uL0VmL7cOvFo6so1YfgSHTjnKoD88jFSjlEfOVXyr/ZKnBSsfJ1h7a0D4HbCjyK88t2Z+lTY1ZS9391OsfpJlj1A9nQR0jJGV9PDWAE6XHux1Om7GjzlXKjrtSPq1T2OomUjxnLS1nb/XFkmt5xBzJFjK/44AYs16QbGM9VdQ4J10oaCFQyAg7RdTpOX4jolqIEGvkiXRfh9cFNUI5uzO+DmShK3unuhEYjmJFxDfc+LZOfsuCPvQ+ULSg+1ym/hMcuzfhN3quX2aqxDbD1zzM70rbKA1J5QyRf/GsOpNPFk992LQ13Rgq6y770EwIQhFq7xaMnewa6B6azOjFXLLWpAtkp7iT0cgVpXqXFUaPAGCgDdHD5LfIzdl8HfDZ+kWQZGvCLvtBc6zzjDMGWxjRS9ekG5A8z50qc6C0o69QXnto6O1BAcijnRlzaPBaDvaepcPA8RWaLLDRpVcjNWy16mDhep0VKc615JZqlN4uuWpq7exiNLNkGRz1M3xORnWvkpn7Sotj4MtUzP77UhhMSVSpT9e6xE43cQa/ZMpXAv1e/S9bnL9+Nm5ANRiA5n/K2JPBfnkwoX3LgTUQLT1HTgK+Gslo0g4Qo250xgTsQmrzIKxjH/8eQDVHpL3NVH0+dCWmWA7FfzTrZBirW4aXoT4K+Kle1ON6IHJGeP3pf6oTBGSw5stzJm6hAJXGWvuOcmtTrhbg08UosTfCgZs4aX2v67XuGrryCemNepFH1jZN8smiICz/PS2NMs9N3uZUILboywp5WhWBZpTMi6OuUDsTnwkiTj4NEgrcN0c+mzt/8wzTFpl9zDrKDy9aqfKxAIcSuFceA4mnE0HHOLaUDVfxJ6u4q3SlFXaoKwUTT+jkisAIObOQxpffSZ+5xa6aoED0vL8ybyPh0fA4/jH7dkX/QCWzmQuJl+Hlxjki4jv7Zq8nOfIJgo3qAGcuND0/0NfHRzZxhfXMLjOiictXoCqtJcsziVIB+1P8nfn9QHzbKBWyyreU9v3qCxNR4HIwO5DKjxRPkfpP2Qj/WYpu4WpbvOUjyAiZSoBTwv92l01BKZKxS1cgzF2G3qFuEYGDZsyRR0oElGbDYWYI3ZiKxv/9RL2j/67aqfFnbrGUI/wZ+PfMmasOSnsnKAFd0qGEBfAArCiAIs592IJ0ACQrFCQVu32z3tYYHYQQILK7xX/4+uG8RP7RyVWGZIkz4XP+ppLzDB/EoMR/teUqJEc7WqBSD9QUWgeNGwNrvz7r2eQA913/+z+VqjIu+oN5Cf4gcjFmhLMAPG4uJjS3QRxm7UOVglKFJEnPa3tWsduiiq7WpfW1cFi660QWOV58DeO1qca7Zn6U3IpTG4IIcnzbJdf4xyvj8eAi1pUwHVD7fB51CuYCrBfc5GX0mWxBryisFqhjn5ot7XDNVWB2Pz6j17YXHONqSqWuJXV7WKY2BsqSnXLSPRELDJ/rMrYspY1c+cbYUA8XDkjJaGhSSvX9xn4fJZcfMlYz1carOilsYETxbRZ+uhuP2RJR+qHASRdzmgb+Gerko66HxepuGhjt27HSjWoWEGtOVqhBelVJBgNk9fOldQ9rgGaQJUeGBctkqV30Lz6J/ZPCXZuSmBtFxc6T1lv2r1VpxheEHDiLosPTX1NVWryxUsUMHvcps0FK8Ynp7D9j9RAZFMXmgzwrkJ9x3Fqysz9umo2qetVxlTvUGKuPyG8YObCmUbMgBS2Ys20JFnufTCwWRcWWwZPuZ9UheTvJDDr29KxN3MPp5GQSGZL+vSvrlQqyNFfwNpkeZMdLg9nkKYUaWPXq+oM8nTjRyyBowrChgqVOBWv9saXm9iSzPWmk+Db4PLub70vspl/1YbrzGWXiAbU1yeTnQdPq5b9P1dvkMWslliOw26KCDrAMTkAfteovsirpNfPYnn2r1fz4VS6o3NbONdbXU1pz/AhLA5JticB/+Gk7DNiUsXLRUXkU+M4ljM1Eb5P36n3fg6llQKSRdBO73fbMaFIRAQRh8L6jAFHM4qjZfEJviLZ439DobnH5WewbwCnBBS98x5UOxe6sfXane7qO6KIRkEJ6Ajj4H1DeS1Aft1exl7jF5fAt+eiBBKfprfAtoyzY9rL8clFdLk5ifDXewzkStrWziu7lp//yNWtVzhwEkTrCPh+TwWKIHnPKOIDUxxFF3HXp4d22rgr2jBoHnGlp4IN8Yr1uIJyF/sdqXlVqKldNJMCJ1gn721gGtybBk9w7kkYplDdk32l7suh6E/bIrxtx0xFycWr7oyi44g9MGTeA3aRpcMT67hQoaQByRJa/yfAfSdoXl2EpX2T9X9nRWRsLWPD2s7X183eHIGDe/9aL1SKdfHUVI3Xoe0KV/jI9FXbvpQ8dDfBxWboqtrhpVY1ltIx5QuvODrh8/2rPgoser/MD0RXUBM6enDkX/1jge84L1yXbIwwR1ZdZkjm9LSx69SnfLcIoRm0Hx2Amp+CElwtWJCw11HN+LkkKH1XYSB94IYK8z0tOU7dZ1tBxgVFC++m8GQuDtm4dYCoguf1j7jol7GeEK+ba8HRGcfRmE0pdSSTMOJpnKwWPlHvPk6IX8PFvRSs4sAF3Rtc4QZs3nU8hTBc5NPXGoXBmm1skb0PqRMcHu/lSaEYrrLkM9zTaxLGF2Lma236McUUMtMlIzf9i5HmJnBFEs1gwJ2EHnwZ/dIG82XIeR/rCKQaHTFvfAt375tMGl7I8V65y0JcXqpe8ME00KZHjxAlWBwIMdMKbOQ0eaxK8cmgBveJ4ovGI/N1C2NvFWx2ehBKdHbUHch/fVdAV06s0fYycPtak2js1d/MlakA9+j24zFLHLcqTc1L9h+7AGDNd04Uv4RdmFKs6HV1tq1x6kAL/Oqg4DoETjDqhzWXzlSfRBbsnIu646ZZJ9xJyaZErliakMShxJ9bdOuO3cbHfJu+JWuUrVcak6qIz4hzI4W3Oapo8GX0ahPScZDwI3Oqneeit2TPezvcKGR9ZvFIXe94IhaUH2kGLspkmsqVUGZoYhbVjPEYFP2aDZ8aOzWMM8DcCczWIsRkpMDYee9SRvLDgp+2yDcaRHSxyh3unJmWENfE9Qc4t0l2bayHFCX1j2VptD/D9jo5Z4egn0Ba/an66HdbssbhVA6iOMzjiMBkb5ctROZ/35+ujl+Z688pOYXyYOWmT2xnqxmmWVdNlNwDHAIw/qn1Ia7R1Gg/hSoih3MNagLWZtOhxVw0Cofbq6aw6kRwwjpgj+SNW56fDs94H2cgvpHv4yD9i4mBrRIBlA7k4NtQF4kfvUyt6M56wRndl09pAXL/53PJSH2NtK7170j5xpRTHR/6sEm/lg78NNlZz865K+i7eCp4vUU1ctblnZj7OxxhdI9/8XmQQeSS7X6vKpEPX1gUo1IiLeLcdmcbJYfuLpBFNouQU9PC/gvlcgMTAh102GgrO93mu+UBFDl/PZjBP0Q/dBQPDOFwA1unrt3qvgwNXMP31MOMfEB/OlrsUd3CuFfpKs/GMrEwYZhRysGdDMSP9NvRxVsB9V+ZrojB8k/jA7J+tP5Kkswn+N/KC0YDTkGm1jfshs2T5Rx09S0mkwqtOLiY34pmZ+28AolIyhH+afX8iv3WQZ8eClPv7uVz2/zyS4IREO2q0vnzz9SaFhmTLx9Jgh9oFW23FpxZ+2h+jIO1xhK5wF8cWcq2qjYFhrdcSQ+1wwLviYvDoy08GFFt2/jeXj2e7tD8AxV5kzuogZSWHT2Ps279Buts19iexLvVMo7pBfDodlpAe5K5CTh6d7s+csGADmHAWdmGvs+T2QnOvjyNFdFHIRnNeLePaqFP61PfuFd6/TL3UPed/gD1KPWWfWNwDXunGRs3/qqxG6UE3oZp2nchm6fTU0sH3nElRl0JG4iqz4tumNyECozPjApJgLIVil4Iua4ExMWHMznvR073T+hHkfQUJtQVcFT8cWhQNahje+XDQu3nwmdbg1RbUN0wgepUORPp2JRggFDvrJxf6SUnV3B2cJgSZK7oa4L2AwSxMSE9C6VDdZ9RSYyo/zvdhBwQxc8Z2RhmdRbG7cRd2hFzg6EoS++mg0bqVdbtccob33fX+NK61qJOCNOqyVbU779I1yyIfsLiiLtppkhy+AdCNv6dT//MdCJgn/7gUylct35sVySnpIO222XaKkJs3NMPN5m5DfgF7o89O0Y5dAfiKe5wFrH8ySQZ77XfT66Nb3YPJh4RHur74UcxsIiMp8XSoFIdFoY+NLX7w2cc2oqUJ4LFyy2vaLUz0/P1XiwTvJFZ5fwJX/iZcXzTz8HNhC43lZKj1VistUdOWON8Xk3WzNR2EnUaSaLWoVhDjQiSIFjkRxXMiJZsbC54nIHUPQ/alPeAY0t/kil8L8FUry3hwqR6abDBlPn9dRZt0lO+rVh3CNlkTm4CJ8e/xjXuIfknxFNdCL5X5CGKiORKnGnL0KZtEIFQjNNRoGsQs2aa+kr7x1nxti6t/gxuwipVpl6alksFR4DS6ac6hfaNJ21p3tC6e6NTWkTU0QygJHqRTaBQgL0htzJ3BSEijV+gyTMGzf4IBY/Oxk7Efth1Ei7G4aUyTjIAweLeA/wiQ9tnJpYsW2GLWW+94ruQSTskp9GNsP1MI1Ob+iQ28sWwRlknGnAsSNn8cmj/6OBuzCDY/0ynVPgacVejmgl1cFH7z0qjFIoyM0boqBwYw7xgd/6Z/XG24/BPPjaZqbzVrvYcy3oKn0H1gI6dN2FuAAP7/pAsrlXJ6ZzVuRbTtkhhSv8EvfwDYnh6PKSHlMd44BOs3lWLHtARLYe4T0VsriIkKaGAAAw/jWMcDwgAzDuchlr3bvsoWYMZyCkPu407yRUUaEd10e4ipHuHz9oSzdD4l9SrKTJDL5FugbyrX5Yn0aHf+RFq8QPss75/XrJ5+XR3j2ZfXnR5nb0GG35ob9Crf5is1ezVn3OZ2ZKPeheytO1/iw1RiaDXK6sdrlPFXL1UXJZFrROU643efCVvfhIk25vW4w2RvzPn9rXHsPpDlvOuTXymRDuw5v+bl4qOR+sZATpWkL2JS50oCVj6+aQI2B2WVL0zF8diDJ8MQCt4KrWGIOe5QasnqtKSiX0oFwcpogGf6gGenjIuuGw/Jmb7l7IdMG/BmVpmT75PwlB398ZsHDLc1GD8lPsJ7JIV90ML7tkgtuFVWMDF5lrGTDLOBw2O28ZkrXttZB69hEwUElsyYP7zXmqcA5nQSErlEoFOkejYJi0TCXhWweTazZZAQ2g0KyRIlDivF/Hy9HrL9zOcGkiXWjApGdc3DCD6MtYWn1EsdnyE4kEKS0N3+E9JjHtWPh4npIlcAacytZQ0Rm6RZAL0PX1g/AaSNNOGbEbO75gvAozLfx+zNt/DjVxcaHH5fblh08EScEPYaWQ1SGakLA9aD0BSpQ6gRLT7X5IW+pkQ2/1RwIOGPt9m811rNla7cXCmkOip9AFEZk03wnFQS1HkOvSE+qAy6oWVnIWDY6lotWKT5/raBvN7dbLfUJXtWuTvz9ivylqCwN3bcClchGn2PPRWPGPgaarQz0Q9wIrRYS5N2ZbxiWgLFZwL+nrVK/DiTF+aMHOVwp8cJkimb0HFWtA03ejQ6zZjKe94HjAeg80axDtdV1+4Uh08sr8ZFb7L/fF+3rHLVPvqsK5fxnlfWqd2UgtlmD8Qpu30dhzGS0zFGu2BpW6yxFlWo6YRnqkru0f4gVVQLDsVlju1+Z2PACv0hrr99lwlG/M2a+KVn2jMo7aQpwanK7AbbTQkKQOCOqcBJ8nFeTjdnPiUZohMNshb3xJ4fub+uplfLrhISmJ2c+Y2AgWc0dnnX7JgpaoOPQdhoAsIv5zBIeOlCMq9fKXnqNSnYd/20OKd/9bv/ZMDKzd2cV+bg+L7/ML0cJPwECAkMDeYWmbZoq5LYHYeSY/yOz8Jxl+dCHY7MSg37nFDmkWS4i4niDrGImuMQzuBCfj3rgNmqcvkd+JycJF9DGX3aYv7IX8t51zf3ckvMfpx+Imvn/vBu/2vJbLhuPmKN6aQzG+E81JWRuOqc8qTBwYIbQxXUDZStQp/F47J7+dT9elE//4nz+X0LFymKJEIjC9JrhAZIaQ5YX2hyKo/i93Gm/k1kZPm/Ty0qk6/J/mJpWhLmk/A4sKkq7Vd4U3LydiQ+7ekuGfgwZOs+csoNlTrJ4Aq0VakAIyHQHQp+qrwsrr9wwvOkHC4pckMNxYq27BRRSL13/flce5GJ6LkXdIDfBFDBejWDQZbrDVW/oZoT8gtnnkr4f+pZiEEjxFg1bAR+QXMH47fcE30IkSqKCfYJrfGbVnwB22vu9Pl4SREnU7NtrVy8mIOzuwCDeFpKKNXBq5X/pW4DCvSp25Vi25gomtAu8IfQ75hTcVB5CPO22+qQ3I++zhjDqKsKaRS3q+w+VScY6AGxjf4WFMX0KHQqaYhoOG9f/Z83gSomeOLKAAaYFQF1LYZv+R6PiElIdLP2kCHHl6ImgbK7V2oaIg1v78g8PshDHBsj4F7LE1NEc4zNHjehecJB31hvXPm6EGZeAZkMakslGA1jGgri9IS3Wg/RwrizgWnxzx+nTWALvsSlLwdZzpQsayiHUzsT23c2Sq3kK3OUiV90Z2/gfymVYYHr/f07Is2OOtArxXtERgsESVg1RF7bdnH1IlrwJ/o+N5fbmeYrAfYM9u92Icn+JX5fSH+vmZzgP3Csqd0nPS5/UP/8u5BsbKyzFOpfnQMryDHgqhh6SyR61fdUMrzHR3QB1ZhTaHAAGevLFD5/VJVnojtq61+QrTJmi2FJ55CWjt3FKBeDmWGk/hecSSZ3KwDiA4fSQmtRwGPpa9zggTaPBM9HMQFhYmRG99pbWTx1joPWcT+2UHKHhe8Wlq78AdySpG04JdWaBzOxMXbjJS7TlWjB5C1kAjf7R72smA0rmbsfiFkKRT1M0/uOvUiRzGjT7WWa/7F1etUJqwF3zk43XcPeAQ0iMubFGPxnVQhxzTTI8HP2PPo0OyRplZRg3H8QaUuarMT9Xsro1o+Tn+CnD3GepsxKchkPx4hVbPgTLixHE1pnxb7LlT59N9LMkH973SkcmrZ1YEeTedrtlhn++OuRMlAkMZiY8+G7WlC1UiWAvoJFlOFQEHru99Pq+amutzb7MkwBKdph7ppg+f/rPUv5WwgaQ9phvfFw1LvgUk+xVQcUq9KYq+2yEpKlkazdnfgy1rbNuEqn6Z7UstJOg4knGcIsMvO2eKtI/ttoJT6InCUM5lSbTnpepKSxKjzUm8MVX6AV2JHlmpdeKpkxMX1GXmFi4ZP+a6IkIVzoPlfOcAru4SieEufr/OI2DJphL04qtkLNThKtkcM0c0h1GAjNvDADX4il/CpA313OAdebP2ZQ1Xfo/oBtwQXjBseLduWRVFAzXKqBjjJvpUsbIVUJ/+zeAWsirstcsl1IXk7vnpKS42TJq9W+eyd8S7FWCnH3RqdBUfsCkir092TxMn1Wx3XcEZ9lOczj5zm3UVMwgArNwxI+cQuWvZQqpUzSPBcm4BE+XUtVayq4CbvQxeFhq8HZ/bIDc66MeGEcujxTqVAMf0Lnu5oDxIMqlzinEYiKPX50JLsNJOjIDG1Meti0b3yUxhP+M6ZpLdTS1xYHvA2/ifWRV7eDVl6eA4NpjRixGU4amyRsyWvYRM2wnndrytxPtXEBJILUMmYr7MsXU7/ireKxFgo9DhJuzNV5+ksbNhHEDRghCXDbkXahhXLmqtVihSuw4Y4sst2EJBn/66jQKgwiMbQoUNDYZKJwU4Ht5RDqAhR+mTMl2EjyJwMES1UARYYlCwAJlRxOyC/7ZVC1J81acSxAWjaX0fDxbE9PsMkTmCEb3M2pFu3zvz0wl6eQxj42sEc58EFFs9sKOS/CRcee6krmUPWxfW/CGI2jyppBVpIT04WWm6ShzjATgwVAwaiYlGMiy1kaEmJt3pDrLg8L4/TC2mCnUxn4a9ag4YeAdTzUbjt0lsw4ZTAvOC9vl/c9atLqF3YPge1m2LR/piKRVoJ5Xt3SfMGDvZPznoI+kchZcTZ4Op1uLqfgbyJ48IQjXdy/Np2FJamtOfpbi8wuk0gldtfqr0vYDGr/opAFmMdWdI7m8CvjoTnqnOSsX3YI1T6mkYHF0jR21flnYIwHn28RjETvuvqgrgAqkdwC2w+SPHyj6PtI/3jO85V8QM7LjL9lBZI96kElWIb6esaVmOzrGEB22sKK1VViIV1ZIOiViDB227wBczqJH/vjZ3PfvCVhBSd9QLA0yF8fe5xuhkFuQXLBz2Sg6d5MUqhoPejXwlY3uiO6+pkucDgUzi+gERCgrZbncDFqf482YtS5mBFfadBPNQUAQ6V/rTkh7eT1L0hdC8ErcB3koke2m9+OQJqZUTFO9gENM3T1MJVSkflHSkpmvkJ7+ubUvpgfiSzqBAyu+oHmR6kgVOo60VpIBO1PjyTBWYuUFKdeonw0/vlY7ZsKqUVxf8QKvDfankpQBauRt/rT6VOLLtG9GWZEWNxDfW8ayr3C3CNaxHw83GxAp5y8yBJp9t7PfHVm2JqE/aNgf97iYjPY0hrR1KE2bRgEoloEcdtzUqkWyrvEbOvFJSNiVE6E1KxrNK7rWWFLPKQaLT9+SZv+vfspZr4zwpajYyOC8A/sqw06lmGnra+fgtwGePwELrnCr3ja+d7+gQ4Ba/w0CTHUxvOhKhTgCPiV+/0+x85yut79TAK7lJRw8N6N8qf6WhQzHtH0JYiyAC5HblnVpF99itUaV3EVISrVaSLsjKXxuyvWerJxw4SmjYX61xkQ26cvd6sndku0TkHlv3pL5t/a5I7qD+jma6QZSxeyc8kHDiu0PS+h+F0OrScFnjAWTDH7GO6QGeB5Y3/DHAQkwEeauhim3Blysr1QuGptbb0Ec3PrwZ0K1T+gqQZen+ZKsBKOm0JuG4SQGub9WtfTJAtnC0MzR/xppGmeFkdgdEcJUBEtbUqTP+FIPSrzgsiZ0VvYgKNJcTXgw7SDIU2c3Z6OE369ntyONs+xReGuLL2R8jEe8EuJBRsAxa1ef82Pz9g8y762F/GGNgpaAtRrhnfuMHTVP/UVAVTVGqbTK29w3h8iMAFruva0f1TTRBe0EjYzu9Zoi0CGGba4j2vrswJy+S1p6fmZZPSTSlk80OfOX5oh/NHrMm0WzVwvnfINRt4JVu7onLRDsR8vDhEK+OoZvFQLbkWqjcalDZ0GBaz14Hd+laLEAuT69nowXIQmKxumkFqPRW0NzwHsYW9rqPm9xQjqMGGtOP4lgbpCwEPKJSXD+eTc8tp9tOTNpykVEMpwnUxeElowLEgTnV+95QFHhFNzykHEor6RzqYC99Ypf/cP2Q/5CdruVtL4qMd7+P7yQgdgWDsadBhzGyY2W6WiLV/13smpW2sKtBB5zRcJULzMt9XnXJVrPde2CqByeE2eFi9J/XKlIBRcC/GqIfZR2kscICx43K20cj81kjizPAE3xrHWah/A3nf7vb8zC9omARmUQZg3iOfViKxx/s2s2jqxfnY7ZE9ZyBpD6ht5tt3repRyOH+mP13otDmDsqoJHhjKIIp7WK6glJl7xWKrCUHQJtG83b3Svy640jbi9UW0idlNc0e/qDxytRmo5c2Sp9Cxag64hwFm+l8BRlLgoYLzFEcK9TEK9me5GJqaUYxzO6+qCZ78r1ZGAR5xR3cFpPr39DSVWqkicxPWPiyyj/uKLDrblrHoWu1UuWifryeqT7X2ULra4djArFCiCLMAv9bOeaJqqPDKcTg5K6NWR+l8uHpHLveDiQ+iOUGvNQ8Hp2mdhXBSpdUdhiokZk0S5e5gJl3S0105NWeaqhxSdO5wJ/mRX/V95G5KyNUS4cVExDyVMsvzqsc3EZxPo70tL1YqfNMxIH/HFSukuYLYsdfCB1NA+zABSuLuM7jtwRX0iuL27SIyCiCvixrU9r9FUOGTPJPlh9s5cfAdFVM93s2rmOqvt5IeW9vwJ8uUtSwZ9iB9FF7blVCnQgDnDbwaZ5t2iJV9chmD6TSw8C+0ZgQoSXI7POZ1GaZjvt/e21bnZK3jnVxfjiY6bKQCFLSxZtDKTdg3vnDgE4UxTaiFme4jk6PZA8AcUCrokbNTlBHavj3RAAVGAaQTA18sQahsSVDWpfo/xrL0llrhJvqv0y6ehWBrMQABsg29f3kNshzzhWfyy6vW5aAZxMq6zZmAkfB6j+3Pn/xx4M1cs+0jKp0kZBnjogJ5y3Op+5p+Fqb8Zw6yZctUwee7MCThTvtBRrK8L76n7tu3zqDk9JcJgEHRx5hmNywBKSrH9U6+xdPVNLvMbjDfBKK0g5vv02YfonlzV1bAjNDoQ5d4Bk1UzE14WL8yMJ+7eSgCE2H4ezvqn544Yxxn9W3Id9OVsHgQlNHcvo0Uw6nLE6AjcqAOn2u2eor/KAVxC4iAy8pDwP+q4I+izuALFqJ5JgnH8bPGQC7MHGfT0FnTrj7qaJVHNmCKVCh3GVOQGp+myjoa/S0Mxjquxd+YqF2tz4cr0+yq6OejoMhjRI0YauXuFj/xoK0QsyPO2l6cS70X2ypc1aNDbVViMsAHrYd32WP/3tjUEKuAqwiJlQSNT/DOTP+Wpl+shj66cLTurnYPn/0AvGLpisoXxejp3GSUa1tUYTOofUwFxf3OsaLW887jL5PFn112sc7X+7zVxEzy89ozUc+58j72NOWjmiruRZwpOYq5P5CG6VHgidUhwSE2T2LWdKSb21T4uk0pkMrOZ6TU1OEcw0VEf/RhLDityu/ocxL4VVJuxKBZxqYjkpyJOS/VE3zXm1fnSqhNR789oAaVoIL9fTWrp8s+9tCcsWBoNZ8PgPBHDjRyBWhzpr7jQiClwIEFDSiV21OxIQ1fvMuSK9M9PkFSVbvxRkLyMfPOePdm8+zrFINpbA0/SIgoILwt+o09YRQ4+yrqVlKhcnzBjS5SajK4lwcmkptkz/U0P4tay3BvlcEiBuyXo4+Q4e4aSv5c5D1zBo8EdliGUDRnFpwU1mWulnG/M7c0VlSJee32leHxpew++jsIQ5N1YLg0HsoUGKXBIrjCY09j12YPMoCQQog27KzwZajoYbgr/P4MfUtgPF6g55cwH0px7I06FCKzSkFGTT3O6Mh0o/H9tYIUV8E4vmTvwNpG1sFbgUgOCkwQlUexykbhESXCjclPFwi3X8nlaCHE2rx/JGwc9eGIkVL+rk9BZqsDBQKyRo1zpDvslsQV9L2KPCVmQLqVx3oqZT191Te/ZhK/UUp7XwUVxwXidDVUcYHQK++o2OO00as2waIepJUEpIfdc4dOGQivpOcm+MXRoYLl7jx72TmNmXsrYVy0wPTHdiuNtav3eEqjsawNbWSXuf/Od/hrQvwTqDpKcxdaeH+1KtkWMu8wa9++wAD7cMUolIqMbdmduq6RntqbwSUx1yaP1DGgNka6iRo3Jh5FfBaTYx+6bXq8SLoflGrpe7rBd+4YO1vZcPlRwKjy+y7FBEA+CJL2eVY0NMMAmG86/yf3F4I5rxaGNvMS1DOxQVKKXNCyJK5MdPBJ3QleCPx0sGEQL1hK7Bk5kjXCbm6029eNs4hGXDv/4ZI/fxf3Z0JLfthBsSdi6JRhCmZK6AcnyplbiEwZH0ThsQ/PnG46ndjjXZ5rFJRMQ6/csalw7HzIr//I3OIyng7gdCMPcltVqaMWKd6dBWpbxM8XBvQYFVF3jt9ItKGIUQebMGn3n38m+iWCPN5F1NoiX+lVep4PsoqmSuLuHK/2iDZcfaXx33KWere3e7r94lxKE+s0W2ER89gISRnYovqAlKw0BKm9O7Le9ltLRe2aNBzPVZlR3j4t9OiAdrojr6F3GNYCHoF0KaRxbswndd14Zb/P7VsesBRGe4fk9XCetXoz73X7UpdBE31xZCi/7ynbcVcu5Ihos7vvimvDvoZJl6LOl/8UQBNdjFZQ52SlbBHiEl/AYfTsbnD/sQ0LXXIY3HIEeEQgBBG8vjqJRAr5kgPsXIWPh+Rox9iJwzD80IHAACd0PLGWTG+wchg0EmV9zw+u5TQ9wCM/ahnMMRAFdkGYWXHoUCpygEaRjJu+9j3htGPF9fTNGx+HvkZBShYWby9Go2ddtaJMwoRCfT+BuZ5QW7n3H/nywbVOytnGpRXLM7r7NIEIGhZN7KxSlql2sfcfiA2DOV8R8bxwsRYp/hnaDWEUVPH3Pps84AEkVTx6vW2EmpMyyHEok9f4weEdrMzPtgcn13j15EOeJd+D940z8fYRLebC6Pu74FaRVn8QxNL/h+SJmN4lulcMalJZ/xy9fOH8CLOdMYhNaFXcyhOnBhdDrBKppd2Qn5C9vKkIOcC8vkij+5t2k5JlB1Eicgq1tXRM9KPcS0ssoeHdbqmqIO8o2owLYFMdEjYFUdLz7P/nAN+/jstLRU1u5YhZ+l/Ag7EsJCCYvez2lC4E7xYj5KYQfOA7gfgz31W2bLXA3DwjfPV869w33rAshLhvjF32jWR1XLC0hiXSCLE7aI9cHeerr6W5y14wawFck6/1O3DKYbVrTPFoonNYlGM4Q1WepF39MhSUyXhGrns6IWGYZOKUcaicgjllY3v3UceJDo/sd0RI3oxfzn+Ylu2o9VjyFz67yjPLym8jbh8lLhOV7ZsIcngKhqxtwG9F49ayw+g/HCYFTukI3/BmOdpU79EdLHW/3hOyKQnxIdyjS6JjRzMUUWEuxX/1glnYZAYKDW1ecct5uu1h9Fwdvjw+QV9ieCLWvFEmmTL4JepWr7JU1UL10Rs+Vu9flpcGXwfdwYwBk3olxzwC1Ba/SVs7RkSMnCcJQGG9HD2iftsvTVxc7tCFRhPMnABzmhn1RawkbraqNbmACSruDs+BVTsAI7efUvphJEaOd1uFjzyL4XAau/qrUB0UhjH4sEAATRmttVks6BPFdDx2voTpbkINmXbjpv7+OWZMACE+fn2b3VH0qiP9vJ5PcWH0Y+rTsNN0l4Bvq+uWsxZ9YuqZJAyGOiZaL1spuRNjNbat444tmZ+sOIR3U0WmJao2F9K6BUejcP8zn3nAlvU7JGoe8Fa6FYtAlLTYYMKt3Hzx26MyEmOn7YaPtEh0+4heEb8f3lPWjVVCuUdIWo2swRVf7s2X2DcID9QFlvRKwZ1bvXipUHUjZuUV/ve4Grsr/P+/yX0ZDd/K86rhiG8bAmt+sCmb1ZSKKIGxcHXisZ9lgQiGrOMQjXNwObZFI33AjClRSi3xJpx0QG5LF/mAbCC/8LisxGtutN0TQrL+q7HOyM7P2gEowkoXLlv17QVz6KhlIPOP7VEZon2tHeBzE+lOc+4gG8UMYnlZIGulFbvkq4OTPInrt6goAhdlUVP2gya+dDNYBrdg5EO6/em5c3/Fx36kOvIWNLGZ0Eac2UR/001i3olU2w8Sw/Cj9gOcJjnjZ4PK4gdXbwYIaICFKTFU+qJofoa2r1CkuQ9bVVPrwkBJGx8SVLzV4I3oMGOFQ7IUnjHu2HaiAXJWfijfJaJmjkLbl3iT6sqRgt/Cv6onIO+P2c/UHMRb5M+h5xY/d9ap7YqiH5SDgJx+Mduw7BdegWQlPoQPoyrhO4gP4/zCn5stO2vppQAbBtTHRerfRL9T6rx/jMF3jJHXQyhixRUWPXWlpScMBiN4Yuqo60Q088l4QbZedoR5KL+LWSbTbx052KA4uvPylcTW710PDJaMKbIII7ZBKNAk6/+OKs9W8iQItb8jaTTrRkF+GGXqGWBJqzxQL/dXYjYHn1ljbO/KiGUgjg3da/mBYUqds8IwAI6qXRxXgLzUaXrWTPVZciAAIeJKFEwvXinsgKSH4tPaQ31rpEHI+Un4OurnKJrenDxgiC/M+4Dj66AUDTXJgOB22ONqeUfJY1mnYC7neVqdv6VtE91NHDKd9oxBiEuaXc1+6FDGiSugYoBpITBDQzcNGLW25EdVpqmXpR5WuDvyTP1AdyFEH3adyEOQXYXQiJIbxhhL2SLIVX1vryJjr0qfy01owfCknzGgnl0WZUViJJUEFQ/zowRVdIsz44q7vftbJqYtMIwiaz7Havnt/dKOJl2GHcMp9fDN7c8ZcC5Lx/t7E5Qr1C0fd8j5V2jA3PjmlqiftoZ4Zm46WuZsV0zhJvsTaTM9RlSFirZWCQwpQ3zV3few1mw0dRERxy0YMAqnUR+hTTgmtliD2HYqQ9rXhvCqYE10SbBOYuvAHd/WzzregdoPP7mTiTvf7iDY4sAc7V15jVrEa23c3ZiC8rrxl9aZK0gfFOWI+kN23vC5GoCp5ueo7jprtQ0/W6SnKQ98fI1JrPl0USWjwDCANkJ9oLqeTtzNI2imhszyOR+LLemC8MeinXK5qVpQS41pyOaldIAsdglZ7jvhKTpZf4tekz4750SiYbZKrSNQgr/MDOFz2yam+kBSxa42cgOFDjAMw+yWvTekcATGrDltkCxO+6vgXxlhM2JjFkr/XMpt64KKLV5NUmhyXqwG4EH0X5sv7q0kxAj/TCBdiD/ECXUw/LAEaOT4Hn+NBlY/xXbjgBu0serqkzsOMUrRNcPF6WxUanb51fwBljzhiTOpsSCcm7X0JGr3FHXKBMVXDL8WR6elKKl72LBkeiWDwBVS8r0gH/vCN6hAOFpMlKU8mVN4smgTPKy76Ae7j+9ehpYYOcvWDfPZPjnSSpsZZvLBYr2sWU3xlWwiN7r1XNJWk05FpggJ6MjTdq1EWV4hxuedBfe0L9wjkFAx0m+X0X+p3SeVtoFOh9+MOA56EvZmE9MCQfUUWMGy9cYmhaJk01mZ5N+bHAR+fFkCpNwmVEWbHG3vazo+JGPaIuSgcxdldwiEG8aNXTL+ePEvbVQcykfJ3OzYF62ozdclfnORbIfQAK/3ssWwAZjQL9HpT6Bu9hoIt8V5XX8Bh/U5lBpVrgD7LgFKx90C0ZJyNTa9fuX37SZDCuSHNDC45cdyWaX5jBzcNQs60bCztDwX12XuhX00phFYCS6Okmvyr+GuzDH24e6X3NK34fjKSwY53BGpcFfh6Y33bLXAlmo5sXa9TPdLkktkGiAOGv/WsuMXyGOcVy/jYUFcU9PU7ipGghicQjdMLm1beTBZEMayGINGx3JBdJA6pArRTVurvGsnNWS2RFYpqQZurBFRsW6qgaZnjGupJCWv1kRpK4q9L1Kyv6EYOImH2aBuPiptdOrntwcI710UhS1eJRPOy3kIEAyokgYPWNRBXjfvY6un1/Zb++9BladAvPTcZ5bKJcHehB4wp2BIg2nbXpJdt96JgZoiBzMik5CCrgsJBqLEaCZ0MWVeVQFJytgB6dmI438vKEwm9koacvgu4FvKbStI58ABkiUw0mmFsWeATX67Qiz2qAm/ZaTO1kOOMuP4EKp+TdC0rbZqcx1t+JHxIeeFZ3nG3m1TXDE68a7TiW1JigSznMOfMvHKi5bctFL4ZiNfjsrhI7hlhnA+G9GEPrkNP/MhPmesJ8BGP3hvSO4aQcvIQhtzZhnvxPoWjxJAWYzdwjtNdGv9kL7PJRF9ti02fPQUjxbtWGVPoQC11k/lCNMjJ7KhVnxjqic02DZ48Sk+EFDJndeN/T4PMZJnaMOqFuczWYgWazcDFE3tYmu/gSBHM/jiT8F5XmyEKl4qgKyw/rm5vEtVF6iS46tZ2t8pZaZxXCMs2BbDwN5SUhkSWoR8EsLhH/o8AfKEkWYsT0kZ1NI33q11LRVoCEqvWmmfi36YDXCLFbcq0DbftO2g5jZU3WuKzFZZUL3DlNzRjqpWEQINs2A7mzdPbXS0IiUXBjWsfueDxiNeDJrR+gI8iUxkFnPwXvZM0EyCQNJJ2GIXQKPn09q//RhN24iWUonNdeGC4oFKqZ6LgecTMk/2nWeNOHoKvX8a6+3pasJIrVOLY7DrEIl0GfOAyZM7IChFNUZA4RxfrfxNmNe7+BcNC05/xub+VM+gJImu0wq+xbXHeqr+AXpFbOOyRx10t+VjBbAXlAdmGAaalDkXouvoxhRo4WQwKCwVSLxD7EPWrIFOA2U8mVw46PHGeyKFnIBU2JoqiTIBv7BaDUeARKFynFiQzv0KV35Tuz2mD9o/XixqxYRHkH3DcMaR5TnuS17TWKLJ4rR4WKNYD8m80PszkshJSKiLRjapO5hoTfFRLlEfCyk9VD40H1mkil+tZ1JOfynZWLQdedHzJ04iE5Zj0c15fFdZocz5lrGGKRHx8AZ7BS6s4P6LREa4qdVy15Sz+SUUP21R4QQaMDWGnVn+g7vqE5l4P4mznTgXYoEKXjBwyit9S7/Q5Xv/K4naMhT5o1WcyY00PPrw5KWzO0h+FT49xfp8rOznBszviHLenlRVm2CHh5pNxGXZ1SRGGpQXhPk1PZCob8WsMmRnI54h2+9aN142xz257x77n0WLAOTXXYXp22ytM5Ph62tUsQVmnL6KKvkgkYMP8e8aec4oxr4K99CHgJ1qLM3XsCGJLiRZB0TAh1XizF3w+M4vtxrKI4kvmO6pYJtQyTRaMkNJr8LZq8vz/G63W5gS+Z+Ug20P4dRNZlo8rq1ZcXf3YFdD2h728uMws24vRbzPt7i2ccT9vb+9XF+KkDnyqhFTrhfvd1MfGWIXQcxN5rYbuyIxFjW51773c68lW/jt7RYNrM3KxFu0B91cJHlng+q7uUGSz8X8f/fL3/J5eg3OVgEOyYfyTbBF0/WlJZC7v1LnLcdQ7W2r5+EA+hKR1R9ZzE2dMknbheY/oge9MHOlT8yK2Bh7QqofTSx2L7K9LuEeQaEiv+15Wff+XHziUiPinutA0LRSGI5tFC9s0QeBC/7TSd/GKrlVGeOOUgTVPpUGCjhzKPOw4JuncyNddcDRZumJICdOl9089azEnYjDNhfdhFbmWIr0JPusRJDfkA0At+MToyc88BZhekMh9t9sH7FsbsRMKnsdUZULzJVJN3NnR/2Jes/DcK87iI7Ywb/z7qhFZ5A3cGsPk5o7bh08Mzzzby0yXfX4ezLjXO0Kw8cTFFS4GCP0Zl83DHKAqMLZGxNj5c+xpZnGF1MmpS3CmTDoeZBr6imJlLB6I2TG9wkPdUDjHgkapj1slIPFr1RB5xTb/fchMumel+YhN6w/CENVX+zdQPe1FZvYh/ey0jUoERpZqg0FlS4rtbv67T7KU0VNATSRKbLKZsiJjhYyGhNzRQkm1ytu7Psiv5zX8L82rHtSCg+Nnfne6z/VBR6kKeW/j5uVqWFUDGugduXmc9RfG21tI+XMTX8tRpd4WLKaAFKcJPgpqgD/jN6raMOFqKHwpJbd8HlbMJ9bNuKKkO4WzYAn0FeReqR+rs5N0R4WANP5cjGoYsKtK/hk/u9RaO7uEEWxsKGU74RAT7eXZoPDwJ//oAE7j/8BzTIZ2zE5x5QCcnuKybqCFtFSOdIJ/UYdueNW0AAXyNB7fR3rN6+ZYHw9wcxURyf2hSj84zC63JFPVym09Tsn9GSXvPlXUQF3nppLbBA0r7FI/ZZFy01TgPU5nGMAKlbK77oGg5ulcme6HHQ3gyMVAdro9D96TOsG4xkU2ThHZNSHtmhWnP2ESHKgdKdbLxgcuw0EwWzIdOeDsE9FXugs/JDhAFx/4y0BlPQiF1u+QIrVd1FkSihnFBmDaXzztAAZo582CTqAoXatToDnfhumNClCa5DSBnwSZMPNrJPTT656RKCTpe5ENZVUH2ZEEbSX6uLoi1X0E7lOR1dn7KOJccZoRp89Jpk3/1EjE49NsuiVJnUTpP0UdFj4YCamBmlUm9nmRl/WAN8qY3NoX/xIhuTUJuNLBGBCr5f8FNybcKGb2rlL2ehEs8VtlijkcwRL1wUsNXttdp1Xy+lveFfID5zHfU9t1hZUOIjT1EwoESZgsMWjYjTt/a4V+KkcrS/a4Br/SPWRcSUTiEN/ajv7PAz9LV95j7OoGF3Pyvvi/4M83Ox2eYhXj78jP6OHlrk2IexpvskTJZtTuQctrlOHEuL2BqH8c03lBqD4yBrV4aQSc2CoFK1a6iaHzDZZfc5o92izl0a7S1Lii2bvasUVI6y/pi9RuSKapLH7bdAzFEOpfgDqqfSlOm70Cg1l1tTyVbqNxg9gwmdUvH63EORrJ/KeyM435VLvS5FGGG9tDA3MZ9GOVCi4FZUZf2CAkTUgHQpgO2rNe+O8NZBjy2HGJ2kEaGK4Um9HBp9kYxfYDpIppLAjazEH27DDa6yfR2YV6ch680geiyTMMmBmmD/o7GfXxkwNFvGQq7GDw0zb0ZWSjk0ICzpyrjS1Gjv4j9jqEYx3utXjwn4wu0FP4l4+LPokPeSAEn4rTy6xZkcZdhMQjyWfpsPKG9rx3cTcX660pWEMp7qtv3tbyl2+O/liexKqlLVWMDukeqRy5pb/zgY3e966qyFz3jWYEJf0oUPViJierGwtb/PebOPOxtX6uOfKZGFmnU7s04Zkpnj6YaxXGewDN8cdvDKpVP/ZrEemO0cQnG6ZUjv3MOQUOWoixFpTM77HstHl8HmXj3uWBUr7fzplKtzKzmipTl3AA0aBm0gw03KZ3oPQ4EMr/a9oZxnK0dU2E0rC2VnLh0n2wRNIRhwDDH4j2d3NubujvuiTg7AoIM5SgSC7CCjc3M2a2wtm+DtSNuNUBvJ6Kd9cgkbaBFnnqzmPnv6a34Tu367kflqQW8eJxIIPVh+SyW4yoBYQ4ZCD9zYQ5tK2rFojy08Yaoy8hLjlwbzcgsg4knoxxaXm2gPyo6EU55SeNBYLcMtdCr0pCf7sHf3nLNMqwkJN8kqIHc9s2rRMdKNXnafDz5XaNgo4nFfRkoKUZYusikj8IjQ/HElbnLZg3+Ex84/aZ6rBjsxjhfl9hUxr3GRb945sd3JSKRPZ4B2g1aR+q1B00zQ83nM55XkDIHisEno5S3lmsFiIQZZRLcfyWRaUdlPIeFWGZ13oPmr39Qf3LBo3mfRE00whwiTjgerO9JapjXUbOqfaJbb/4JnuqOLiTV/Kn9CVRZlj2u4w4JZrjAZCggdaH/fH6XlVc6wl6HuuV78iqASdUgwdoPl7TKzyab/7cWsok7J+fFXvz88gEZcv0s2p1OX5P3SoF+dLvsU+S9zOY8fHo9Gbz+vF0CENzL5GtOxlBf+uJ51f3a209csOUl6bKRUA3+89U3p7SuaDIcaglj3lpyFElUs6KPsz1UappxmChf3VL9EooYCRtOqmAJDWZuqrgFZ9gLEEhBuGLfE2jvDNSAfzRR7ydFqRjbIs9Yp7VZeAGQadWWBy1MWCZVpy4OJ0Xz+t9jpSwWLjmfclxTEz6x8i/AsSl+BNqjgEEfoBwHd+JjuWuA676CmAIcjCG9h9OqON2P1HFo5XpB0bHIbIWCCAWB7wReN1pxs7JG/dEEp+93xoyxY1ImAz9XNnPiv7QgN6L+UdQbV+0AtrfhY3OpmLf8qlJQBLqMlqz0M/awZDvPmqnpwfrvCMStOgRX5tsuaFXT7ECdSCPg8gUrdImePMX1gNdeKpmed7ZOys2H0tBR4ULv+dplW84jis1GNFp7lP5r9X5YAXSy0jUecVL0kxE7VGXLwklg4JmJHASebnx4T7CshJf8dpIfnas6PHg/u9oNOsJIe1MhvCaCdIF19fO7oY0/5Usy7PA26n6w6pCbF0jwOUpnJijQK3syBrTHlHoOZu+5M35bd+djmKyc2pScIwihErVOVXOs4SfXNEXDhosRF+I4zO+NrbR8O6PaWDrrZ6NBbk3CUVhoBIhRRhcCR2SO4JVO1jJyhE+AvkofINV1YPfHb+Hg8oTJ3PH8TRROppLB2Avp4fprN5N4Q2VdKaGQrUtUkp3SJivsGq9Hz//LP7/CiWQXpFw5Q+xtQf+OdbHzSkMjr12OLEcSh/cl18K3xaNQ2/kKirHzwKL/XLlMZ9kZm7ZlgxSffuRZbYd8ECJGs/gAexDbg/ZTxz9itaJQ4Yt7YNno7DTwW2mLBJeVB05mVWAvGPYQFqerNs6IdPL9EfhljeoXWlO/hN75mElG4nH44x7t6OBC3C27ZD7jNu16sZNwdTzGrO4A43ZE46V+jG8MAv5JHAq7E4v3nrkwt3DB6T85OckYNtG+FX8dO8zmTftaWsEk1FwLTCYTIe07v/2aHRu3j2Eb5/A250Wx8y3WQYl9eB2iUSZQU9ONLDDmZidn+tVa9wVPnJ3/Ow46QPKkDzUXAU0+7OqpewLLZCnbRCB4S/RxEUxnSn3QeR5rdogXuqG1W6d3/BFu08M/n+M7sgz59mZavsmEopNEYqaoE1NifRAVPtAv1zILba5E4Q0cv9Keu9EYuZ7aubuwEc6EYLJ8Ba5eLyCJv8cMbLKznuRSh8/qfC2T+32gImD8bBQtKmXBXX8Onjp0WOQPvMHqb2TZ/2M21xsTMBZScvhLWq3WKZp7WI/USz1SL/8yKIBGHHqDJK0FUwpetsaAcBoR5L2ftZXJniCufKfCv9jpIRQNBQZw7uTqpQ6/8TqGQSl1cOJJP35yWeNUQhtrZTQHODWStrT3zXKaRvmfY4Z9UO+3SvZp1sS5mfmWjOXqSWGEXIuj6On3w+dN+MOmO6aHQwRQhzWHyw2CjyHCACVwJwZiYuFV34SgJT0dHOsOMFRFLMigXqr5JhgvCBhZ9RhEOsS9ZZxVVtWo8cj7KCfHBrH9RxwXWQuJiiu57aYckNHixlK596BozQbXA/o5SgKMAJyAAAAAAAN2umt40Je3w6vJihoZbSdYBfWtXkp/V4FSxK9qnBD14Qdtv4Ap27RfVIiJVA3ux/mui7hK5b8bmqc2aReHLCQU7/ImeTdojet+jcRlZcyrP137O6Y7XLpJEUWJ3PMATc1B5CpKaykUw0Le99DqyO1HmbHy7qCQ3wuiD0COB3z9F5AoTmFXuTx2UPDA9KNjvoCqFPHRfA1ksSof/Wj9PbY3VD7NYwE0QKSwC6w/OEsqtHXa+JlFn4LxJfy2lRj5rYonUhnUegbjSiJ7TZBghYf4FJUWL0A5JZRwFoSavwFEcO9yPwIE4TcF3tfbBptpnDe5vNzi9n0kfvim3WgxY5n81cLZAfhCjjjpL0bJeZPVrN3ARvO/tUvqaWU+/jomj8+kehC+q2G8f5WxxmUCseOOL/qvKJPHEOhc9zSVv3tyisGmnrTcXKie8mxBch+2iygIXrC1wRgvCH35vMVG3apXSKbg7N+MbP6Nv2nfBPPc5794/HD9Mv4Rf3UYOwZrxKAy81RpSYdzrvQoVdEfTERhr9vkYb6lKjmUxtsDSl4VVCrtZh34TOGv3HitaMywmXLcg+xEvJ2wPjpo9pJnbXqZYblKTw291VttydF4pkT9KiX/Tuc1kQJrqeyou4nb7FCTgpMRQgyKF6m2+8DOrM/+LBsfOlC8Z1sBVvwXPXvQfOtAeVnQlKTsnlIfjAwrb+6prt7bOVl13yJ8hAjSZ+AcbMFkpcizOq2uE2sSXYCbstJTH11vyUQYg7hxGPDOf/Oo3mL/lXtyupUOT080yff3VHFC2uxkkVSOGAghUbbp2r1tASVJl7f+ZBQRJxQO/oIKFRKsLoAT5NEQedAuXWJUgUnEZaM8LvyDigKW7z02P0jgzseWiv5nMGMQdwLXx2rex1OYDMDoYXJcABgQAAACL/6UjGkGFJMJDithaClXSwITqINjUEyirzYYeHYN9lGv7k1N8ZIlBLzJjvObtZJjtv6lxYjnNQ57dLEDxtYNtRGvqUa6T+tbhLJJUnimahGuQprWDfGB1cx7nq3IhIn+EpVEevmgB33ZqxZEdIUJpfwEnIFiBBU5CfkcdTeyeykBbf1y2b8t7edn+9CToYRzxXtVp8HYEHhTOOwlIja0VDZx5Z6vTJWapO9Ipf+T9O+jZHOGWj434lwP2FeHF0jytjCAZszJOPVE/KdZFHq2dCIGKqBMYiQclVP9cPWNbY4YMn2nYab7fjuzz7iNu9t+HMGHJPAMufiTbwycqOGXGSq0JICGEzKZgBYpW2GWTfVlChi5Ijq35p5kkkT+fK3GwAtRcXg1FLCbRYYa5wTtGmNIW4Fs34P2UzWMQAX751WDS0wS4JnxWdwRjsAsl/5vwizc8BwABdWKN04sEilIWFUVKeSsqDl6UpLsNS8LZDZwhStndfBXsthxUpQDMXWgJ5kUPhkmfPAJ+75MEAhoabz9Ifq7YXD5PLPprZBJTvCoH7qTNdPl7qOSuowccqgN3AAqX7/Ghw8zl+rWwneI8uJEUBdgIgRUKoiAcytcmH+Y/Qe7tfFlBpNUfsfqeUDO8coaao4IqLSoditUaQKoC5mzL+zdhqia+0sWsopDQ6JDo81qDYomZM/Nk8UrsaCiaXolpXgX2lCpyH0YFAlgGLMdt79HEEiwhKScvoLPsR4KU70xO0IpwLGRLDuLE5KHlmDZlwVEWZiN9KR4YSANgCnMLMfugKxEM2rcD9CfuQ/aotCaKOxj7iqqKbs2gS2nzLJTe9OEvL2CTjYurWzFZ7rilad5vRz+Fkmoy2cBTVD8UXrQuqGqm0mvsWafZZHQvUSpteetTpkIDoTeXwqVOZ4XqnOWh+ZnSCtQ80giCzwp7Ns0x0PxqIf4lISf3VS0hnmtDIZFDFXbqyWgAKkoaaR8jx0Oj+CY5/0ukhMHNfKiQRC0t+42oEyCwgLQ9yTgoO1Ku8bFfJbqPC/AIok4z3LA1/5EtY+xnWN0CUlj6KVYLlIOu6Cjj27bKhpsjgGIonzDakupri27+5Ryo042TdgmmqccWzizVn49Q3BqV267wbcKQC+CKSmHSmaWagiVRm6Jjo1+6mE4jOI9MqrcMe5e4MZoNoDDvhq/UKlvG1wC0ovTSJbpVFa2RNbyktQRKpfOqnfGCgo0UviLCV+HIArfkyAgVYBktuGjUQu0wg9ScDRPV+Z2VY0i2A9HORXi8Cw7asdZkRAnBlgPVORw0plcC3WB6Zh6pNLVPMa4Wk4XJABm9o7G1hYkN55HFkpSQBVGSt8CBBtLK4M5UDwM58YMvxLwuElVSRrZUzcMuU/cOJKLF4vGdF2S2Ev3yizPDullZNZERja7w4Wh4TcBzbfSAL0Wf3dvOksX8/krzDsza22mY1Seq2q206XnzBJxZjcYi+x3BumH4qfCQ6AZ11mba8SNfggBBo7CjAPoJaa+YplMgFd1wp0Z1LZnjzP+7eDga4dPA42t5lF+dynQNzh0SqYYT7nSn81zJ/tL8uDJ10Ac2NZ0M16CiZ9LHa80f5Tg6gknuOPC9aDqw8io9IWxwH+cfRG8Ob2eQGZee2HJfpdVs9bfFO/nY9/Fw2s+PW0XyRIJRKhG2GHyfpFWICNwj4D695dDSUukrYPvnnXpJelxoftxaKZM5Gwq4GPexMAyOGcfS5ObdYCWSKrFLfeJWJsWm7j+lEDiWCpR1NkEUv7b0jk7PnJc1SNS+/CyiXSVKPPG6FtT/TGGcbehjtDkl49UopqDzMG7fccC/Vr36gCVRZe6FcsB7p3Nd/mkTwhTceoG0Tm++ZbQeezv+hJGcrtfMJQEgaeQ/oz34ihzl2xDBlvaWb7Rhug5zQCBuXD8BdvqIVixrNK2TBAdOH1cGfurNqLUpthHW3l9vI3zmsWBDJD+1FR19yVUgdM4GcTMNVpAkh6ReDZ5v4IXJBJcK/64jhvSeoVG3laY75GPTqS4Y/yiEpLtz+yhQgTpzlTeEwJVRucy4OABoM69pKM3srw5VFue7AKJRGvkqkY8utsy/nudlBBicda1OKaVvdYEgxn/T1YXe2K94zHa8TXgULmoE3pG9Or9JiYD5573xIwvDattAhgfIwFg+u2TwyQqnyxiB/o22YSOxIKv0/XtatgMlm5h9rhJecIWIjX2oGGXHKU14yhkJmWehN9bq0opyxbVB768B3ZCT80CwCJg3HDACF54SQs29r+zPD41DolgZdxW+mbpJtj/MWK76OWKqXW5kHmF3mMsncOln6mq0g6h51VdWz+v4TwKdACauapH+5fRUAP3ZTfveUc49AHE3CLZzul9AeNdlzgJI1Ogx4thykN18Rn3a2Fed+h7h7cP1RclUjDohC4kV1Z3+SnL2spaJZTss1HXF2uIrdJDlGfUE5eq0IxF+M30wAiIfHLA3PXdgteeMniEI5Z74jfFH4a9TGizUEPFXugCQXfj1ss5/yT0xIbbXLxUXcMl9x3bnTLYvuPYGW/SaolUmSTa2o4FhWJFbH43AFATCJ/zMWop1z9g3ULKpCGCXHOGwKxSErsNZa1fAIEVrs52Fcx7JYASFXHTw58jBgp06R3MUMy20zou6ktxrjNclrlnDW5lHCjeNu896PdKTM8NNU8KwzblxS0OZmM1EcwPlvcvLbHtPHobINPitoeQ1dQRvcna9zwXunydj4CS9M3h+oqWGNXtxqPwJmizuWHA/66rV42XYTSO6Rxe+3YCKls97F2uJKtBk92XYzpAqSeCSYhZMxgHMJB9rl6V0SjEhoYC7BwPnlzh8qHdlI/tr/72UNu7ww+r2dxVSlDGZKRwLcnr+ZUUFc+uRBm62WQp9l7aE6v8P3GAqxbgXG67p3xWDCl28iWS1sUr4QQnAdNav3LYhKZZsiCMI91mnSMP6fiHdB1en5TAI4JGV2sts7x3tVCUIs/jTlYR5tWvUWo3r9CJ6x9IB7LACp4ozfNAFyZn6rpDfst9r7LTbuYEic8b1FHAnNI9GY2B/ZT9xGL8JKhLxrvVQrRTkKWc5I0Yrwc/iMkJFwIagtBsO71jGn0zwrZ5h9MRnSdHAYjhAUWNbRgMDuctRGnLwxE7WwGzQTtc0EXzjR26a46LDNQJda6GE5T1OJ+qO6URhz+b9sPNAvkSvXDcEaGhwegMK5B9+zBYNOTBMkzdkyrwpGzGNnp3SmOO2G9gP2q2yWlJ/ixzlC/fXmGqTznhsozFpbhjbb7Nn9O/8lk9lRpjsdN7oSMMWaE15FDoVhOL+0LrMpqsP2ZKAIMH1AgXfZcy3zIsUhefQUfvGr1lD7bcI97nkfdSN4V1B/GSWWsyjhXzRtg4TsKtfgcVz7pmqjeqoY152tLpDi2OPO2i/ZGlYcX8VZdbQ4yJzHA5bTENftWPsFtW6HUVvDz6Uu2jrwVkf0GgxkUFb/2UPCCLxr6/Y60evkaArvLngo8v8A+D+4Qyx7QTCKsPaQfHElEHQV9VU/9WT/sOBvHV5tABRMXHkdaBD2Kd1Hp2c3yeeMglILvqAnoyofcHDo2filrA0OetzL3wS50sEh0i+FBy9FlIlv3cgxnAMlc8yVSjqSU8EYC38k8kl82CgfW4hB1mb0GZ9tmTSkd2UGOkQBGxjBIemfzsA9roVWpRzsKg5+Yl11ikMxX/Vq/AVpCweeKElNAlIz572M45RJkgaU055X6gKh+5twbnniDsJTKZo0ck9uCfBTRXxecl8VYpraQVugjd/l8KlJfVJrxVJY9G6Ym+PmLPYYxUJbpYR5QTlKrqJeLVbieCsD+AAyWN5nkRHNmzCgzPqln1qiOd7uv7YJhaN4uc0XTKbsdvmAu/amEztjWLqdBGsMh5/Zqab+XvuAZ2o9FJ4r5bCsLkP4tK6+Lz8YwNBmYQFCSGzeVhEbVZh543vkwlLL/RJitzQlWLHV9jEkAEr826FeTduZQblggqqQwIKWABkuR2VS4iOXRtc/LxAmC//Pq+E4JXBtQtGZaMXlIu8dc/EqM0+UgxhbpyfwoGoInrVljiM4VVoij4Dlfrq0o8cwyFBlYiI47k2Y/U6aglesgMemjRGQvdkgO9hIUkZUQCqTN97PPe4kgFpZw+Rc5UUGAhsyk6eSgzO1FMHmAjhSqGzUmzRZ1Qqfagt1yWO9NNsrBIw6ipLDJ5ie2rfIziUy4Y8AqqYGuyqeTaLGteZy5SWRtQX7wiLKgKQVXDbvXoEUU2Wh3/6MG5NLDAsdhBF8xUKBqtOXD0Y3+3SbTrFrET9N0CcpwXII+QKQX8xWqhHM+JTZEAeBfdQl66vNunhipOoc+KHtXRKbDXA41+uTltKQ+OklSDmhMandOlwkEAS0VRDrO1hv8BADieQjr74NHgG5t5+Jm8eAFox24kfS9hnyzCptW6AmRXVcjbaHAHpF6R/qxwUy7JNpnOW0NJ083VemhtD0fmDWVTDbqmcv5qhlWZg+gTrFbotRH/bqF5JO1LSG+mfuD3vC/FG2bZOomc5tCAwZlHPZjqqP+ctNQAVmcDbSegK0WVwR7N+rKhjmnrfKj3fV87d32vXvxrFoCb4Ktl7481wABBplH4ZSCFHEIR4ua36Qj4jfLaIxLTsVzlU5a2/vmaKt3mxzo/lGAeN/nEPRRs1j0NxNOz0hg4cj+84p88tVu35SOs3BruT53/F8VJeDigtaD90v6RcnB2qcpi7YuAbxw5qOeSWoDzzFinanepk48vPmmXqipQlD0y6g+Eqm+O/zEtMPlkzFIoZjEftfJhybXwR6Z2MU1Kk9p46GIfjpWm3HgxXwj4e6hqK0GqCOcxj89FuqHXJPRB33TrSLTXhqEUGOi1/rjK7OQkumRCpAwzR+jXY4YyxPtSjiTJsp8KyPTelTgC/ugAgLw8sui43gLBWzw1cbrcIc45X5E56SbMbsPVK2UGxKhqrTAnDlvWnIy534KPwFxCJ8GZhTW68MDVum4OwEESzndIGkg97zkIfT5gf80qKeLFFGn3IW9gW0nHNZ4wU6TTWtCdO1NhA8dhnkvMP+ENHYdWKqNnYvyKk+8XElQr9MxVC9Ll6YYZO2u3ur3l0JHj3k1Zpz3RfP0nKrNZek8UvOArQIBd2Ku1zflKpBMajb48dZJkzSd/AciOuDrP/2zEiLB0vyO3h3zwI3PyHmmng4uHGjdSuPKCrRO0gLIPozNGx0ivg9wpwu0ncJtOLi6A/sKF8a+xJNwMr8vPgZz+wLxYtGRdTihrhGGFPRypxCaESlcKdvz0X9pF6A+q49UAEtM+XvOk8q1z6RC3tT6PbOXu66BzYPda4dOPBXn8LEwW4lOtWBXD96ZUfwh/aFQcmP5aMV2jwsLr21Y0EsmtweDho1HPMrg89477UvYtkzer/pR+XJ7HzTuih1q/C4Q0WkTLqMsNyckVmqzMDOJ1kFkARyFR1dXydNDEpOGyd+df4QkVvqYw6Ba0FSQ94XxNj91/IQRj9SKBq33L3Sqj7pandBYJYLkdxsRJ1JlochRgFVyDP3l+PNMv9CJURX6H/5cX1slhjNfQBbTW5Oy7oFZtNRkRwd+EtqH/lMIe3aOgEkNYx0gj8RzuEtJ6p2613RaPVXnTwvi8F7VUkdUOD9ooTj/re5nAxmIjkG4GDoNWWdyZq0B8Yn5dux5wciQFaScGXeIG4xkirZG+qlbSHGldOcCJxHjYNw4rB6yj4LtRdO7SpHBzCvrAbdbA0Tw4l23QgOi062DWCXTCDR8mOdAjsHR+/UK6i0K3niORXsUGKalRiYebJI8peTyMVW8LaJiQgEeLOjYmXEDnbkJDPY1B8uI5SorzmL+Ab4JNDi+LWIvBjqd6Nsb7jIe1Pu1mhT9Qo9uLjqWU9mJfQ+YC+Cti2YLl4uJDy6Z3MkwfcO31bShdsHhS0RNFCICyZB1zPG8w1xPZj+ALwScDOf31K4uTDWWSNAshVS3R7maByhbdr1kf507ecv/oHnAWaIvRb8zjY3lcDk3dNpHWDg0Vinhz1pYKK/CUtplvCLWauT9X4CbTZNhv5Q+EKuXys/37MlzzOGmbN2krB2+YFihx6ztS9rRUYJmHx3QtR5qH0I+rPgr0YZ1dy+FLv9fQlFfIubvHlRFIBf8OuYWImyhu9NrqRLe9tt8LslDnGYmPJQ4fQ35/CKQqidd7Cx8EHs8ceu2C9XUaoNsRD1sPpaCDitSlxykwDe8mUMcOnmhoisguUjmTtGNwPltM1xsAEsYwybDC/fAcSKuVFJgbluFwiHLGfMS+KODGIesXCwm4q/95PUGHo8VFRUfsGCS+5ftx5ycpTFm3kdjIi1Ezao7tzUgI0ptTUt8SmQ5H9wZOUcbz8+YgEOOCeE0uJWaFTLJ++fzgNpmUEkAfoTq5Vg4gcUTA2WKDlPucYict1D4sDVnm6c65hU5sqTshv41+Os85YiG7x39iCgmVrNkDZguUlJCP6JFc9zIHZQriecjz8cH8cxSO0pxC+BfhLgyJMso0wMERzLWxpLqZx9BWv72w+DliF1kDoJZVRBaOM2hjS/RrwEOO4StwkIP2Loa90pzFl2eUA8lJDwjbBhbsz/xHOqo61a9x5gd+ZV9uJSyWcyFKtOcB5xZoZXOBoaN25AIiQgb2OTqMx9gzyyTaqBckj0ulsO2k74A8Saqx6FpDNo/qUL6yyxv+LCeBfOJDGseNfIK0FsPTgDmyIGpgkwN270zAPQIbfyNRM+CPM9vUpknZs4v5/glAjVoGLABIs+T2Ds3PXdaVFfvBlu8UdvrHPaLYCfwqhCX+DKX2C6nlAB/mXbGz4cEv5nnlKynio5rfhXs5tYYh7wp36in8ZN/mn3/YWlJt6Quwb/HdT236w5+dtNFHhQQ+Bm04c+SX2bc6Kjo2KdBnyVeuKL33bbLH+ZVKWMqYzWnfxtoKE8D8v6iap3O3lkt4nmd7+yj56DP8iFnWgvzCFHAP7ebpHUeFT5312xH9hYtRlv/m8bMIhZQT5lDmQxUzcq3GOtHb8ut8/mN48ypf5u6CahlSgxhFp2C5qgKbqPyT53W7rtcEYSy47Uz6LbGdlX8ljHeYQke69Mpk3iKGp+dZz9FJ/642Gra2ZN7BDV6JD+GFlxLB6Vg27X4/fcWZ3pM9JsW35GBqmWr0okz7cTWL4X1OVU9Vc1OWoN/qgTvV9E1seC5JYAVjpLCQR8MLfBhWjMbxIvVHGQ97PdwX0CGbjBblQHIMrbQC1rDLelJ5X/PHVFsbGX57MgO/+Zq0rWcIWNl0hijzlIZkz5M1YR1Uf8EZ17OmIoZZ+xxpc1To3pz5Ma2/1Qzmq2DTk2mNCCe6nefe2l3A5HjQgOt5TQl4duyh43fEAGvyvEGpTIbeQ0nElUQDlcTa00D0Rzx27o+An2Lu153oEP1KOS5Bg5fZwvLIh4yRziyhZSsIkTqOLdkEizerCTYHYtgB23tBF4++/su9t9q+LvqYDcbI9gvHEhcrsmASySdk+RFSZK0CewThnRNodMp6ho+AZ7K1sXOiboUv7RfCEyfsMtq76do0kqsNY65RdQromGgOf649zz8NhfE1kbhwkJpZie/+94G+D5ask1844s7ZH3r8m4GMFFHsJAp6BZ8umFEKBABJqQzmcqZctXsqjcqumpnikGJlmYi659eymLgsSgRs6hUs3HQDrsoC4ll2uqEcsqThrBR/Q+VvNv4iYHLUSCl6YcJUpiuhsAxaefAjAeFK91BPvXqk6+KI6c2EXp0WB7Frdx4w/V4DFZDe2PBFB/ni892F2ltUJr9E9w7UcnXCJ7ayiv0TKc5+DF1v0pWTaMaxFc9hBfHy3dBnl7QVZdsPmqcbO0UioaQe2d0ofujiT0dgalSZcWtJcLtVIq5AU/OxVXLg0GT7dgwGaFT/T3GvG9yQRS38lOUXbWjSYhiKAi3dPJRhHWNQ7RgoNnyTrMCyyrIAXoT7Mo4A1JbMExQ4+NU2DUKDwdWt7CRA+IdhjkSqMSQscakVL5EtCK1eXnggQbu5aZHkc83HkQeCsWj8uVgmNJ0VQq/qNUBc4AidcDEngBU0BvMyytabyikMbZxiTnjF0/YGaEr2pWbR7uABASUWr8JIgj4rxICVunWiIWNAnH/U32RECMWGtiyN9DbkIZctj0ZctVZi1quRF5+zeSebVv8YIw4LZJVQPVfFQRuHoj5pMoFoQeBW14CYI8Ujfj08OlpY6JLssgAo6oxLvraFAQJ3Jd4Z6CyE2WfrK+Ap5Reza3kncllRsTEFZQd025r2MIbhLjuIogctPGkQZXxeyINxVnl+0/fF9h2/tSWcqg+13PuLXFdVTu813Fui0X4JhhqXeSpxSIZMnCCZGy2AkmXL83LNJItpF/GS4KeTcdP+7ALewQ77GllWqLvfHU10t842XrjBZSLoXZyUs68b9OeKOMCi+JMLXgDiZhuiAAylUEztose55CZu0VUyaSodG8JqQ5p2kClhAl/987olxs2Snj7tvY1n2Jj74S/ViZZhjVdwVzJuZcVq12VXjFNNDULFsZDcBiHqHWcmyS2KJ1KH2DXzwFLNdwTIVPTtY7x1K3qWVcuwO5mHo+sCbADA3nmbibT3dePKb1rgUgDfnG40jivVrUD2ChV1Id7oTsOdTgDW5hkvQZECdNjxi1DRHgvKnVDYEjW4gFE6iAKZ2W0wS0DrAQd22L0TO090qRZVrkXz05lkxjH/87MN+6ivR0hqqvw1iB6UCpgf/bm+w5rk0X8fSZoY2CnNCdkwlBQ5Zr7v5ddaqivRgacjPv8mmeGXbTDWxX4jCXdQ6dSHQ1UwASOXrYYSA+/n76P3bcyHRSzYjkI/q92M70JdBzB9uH4HLIKcbI/CwabPmpdvrGOUQWQuMT5DbrfxHAaj198ecXj/4wXeIAWCOs2AExtxdOhN510HkBsc7/wW8VaG5mG1URCJZsDUtFzyPL2ZzymA2RZHInJmf5A+HjzSiJ8dN6jmAnJiTPtyyxkgha2Pn612+4Fn+J6JM7D2ydeTDSFmsf4Wgqixcgegytdbtbwp6ww6OJOj6SOUyhkcAT05w/5epKutizdFppFrtAME5+jK7N4QAgYMY3rrxTazr3FLp7gMa6DmWH+L7wHx4YlKVM9QEMHhwF+vrbuprZLvcyUcdMfJkHIjPRwwoLNBMnkDT1oxFDHYew62uUotk7svbKv1EtRJm+QkZVB5nZwBA4r+a98ssYt2AGhKysc6TNmNLtkPm94uxOEZKCsaahUGRMOLQ7+zoLBRRSl2jhA4mp/62W1ZoCR2x5DMtbychNEwScaDFUFltg5ED+BwIA/rsRaDXS/TpB3x4+zTGxiYpde5fIH1l3CZKDdWjwc6+CbS2uAqMEgjuSuEfwZlqYtss5iVHOt005Qv75ByRGZy1jn97MnFw2wHxsSxtn/stv6u/3vKyo5XlUDfl9+ngPVkxSdlV+6M0JjKcFSbDc8yZLVps7cSb5S4WOSd8Y7RBouZJ9lG9sbFr7iSydVdkP30Timd9k5mUHRMlUlqLGv9tzjy+6elFkzqsNVmlkHbuDMJk/CwyoAsLX3NqD0LYOURCSdMBnFJvDhzWuffhjBH9NXoHMfrGqu+WiPiy7rhnv0TAZMPTs42KXy1g/vo7lcbKhvJz54fnZI8o6CX/YMUXZCH9Uq8wO/AVL72ZpcYRxNINOo0OEQUYyMY46w095BxDMynxc7vx/Woa3cExevRZkyl9xawXfKysrOnYc0F5PK8bU9iOyTFQeZqFVb2TRZgBpyhL3xwFd67/ZN/cwonpGk+uCzZlVW0uqlKg8NPk10WzhBwhS16VcnlgUck++6YuBAhb/feRtTWezi9M6FL9AurUx1hHHDFLYy1GQej/+ubfS+5ikkhhlva6X/0Xbn8xm17sFrGA0zS/5FWFfsbn33nrvpHQLOQ4Zc9i6tppWeW/aqXl01JVt15mafIQ3YuztJ2iigPsquJ/FiwsH6dpfLm3/Wa1ekcxoYhncdt7rZAG7dKRjS18VGxST6ardEo5eSYYIqMQhQ5ds1HLbT3xNWZWJO3bqolM6Vu2dvvo7EVd76fBtn/uE35Zfde14xXTejkqldg0hqbgdexLiIBniBVJGFavThS159c35uvYK7d9jRoiLI1OaT9og8eSGGqAF+Qv68AGWDIO8tfDKGGPxvXuZ9OYezBQ2ODoCdX6PRcxSVIMPFQtsnTN9Nyj3oVIOFCbESC9wTPYfGtEnQtyedr9ZyYvGxjYYENY6XFvSr1HHxCKSiz37k1VE3h9CB3aLob1PrYOnYqXLP/RgFEIPhEDhDaGRjCwMRPlDzIugbrl452evcEoaROdlznrrfogYv2BjLwxEO9cq7//sfpM1CZnSc7Gf8sY5AI+xUuvb6OXyD+4f7KRPTvpA91vlS2V+h5AL5EhQXEpvQ9ZSZixc0rAEvgsJz2sSnZcN+CD63JOwW44E6zSLeayQLHmhMOijyLpqCDToXI++oOb4el8lFmGGLIFFvHxEHDxecatAnf5+DckIaD5CqMW4e9rVkC50FJ18VGcL3WHX+xDGWVcW9DTmcoIOzJmqepanUwk5E/gazxW+LvSZ1tANUkYLmeicst8CQGVcWbhAGjjfF5UHgeIrivBjio2rAPvdK+op2zD/CU0qank3zaIq+lI7jTm2MhS8vLrv5q6YWxPPfOAMcx5BMyOBiSYPSR4LZhoXMGw0N3g437EBWvpv7y5Uihb1Gv+tBH6XREEypS5jEBy7yn4dBiJup/yaDOLvadLNvzBmENugJnMP1lUd8aTtm2LdR3OewyzQD/2ZyQ8AxVKyxb1Lv5M4DE8VOhqQS8jNTsIKk4WJulFV0nynDAZuLMDUcqioSUON3vAr96Rp4LD+9VVBPOw1fICsEml9HB0Xicga/51Rhxiqx8/WuZC9muisXS82mWcD9+2jVtlhWoamghtDKRfTMAeU7lpTVPJKnj85IUskUqo7UBEXYZAmLZDwPDih0IkwmYTDBpXxKYBUKgkYupsIZnv93at7z/JTcYvZ60ffX4DPQwj7X398f1Qxc8djdz45xoT8mJ+iJka6gTXm6YZNhgfdp6buw6z2Qh1hlXSX+m/Lvwprk7FjbPMTM3YJs88OMEw0HfBlBmCRoEh1haLn5vAqzsxbtjjJHG3dN4XT6/WVnOQt+sq69WY/qO9KYMO6qbvsvbYk2p1gVBzTWkHq1H0zXRIG+XKGOO9OEiYqVcBNMVVM+Gu/xauXAYrfkK4FLEGs53oib98zpzgS4ST9VvQPL7nEqMWM3hzn+VZUIn9sTk4h555pE6WwQFBzuLNpZNxfcbvhZDOtLsJY0xkhrdsJlnAaesRmWFz5yEyN/kZhPIvbYGZRSoBtzoEkF5autChBoo96hKxD0ROR6P6kDXPTQct8vVtTD8kzjU7mBkfwTu/BB0ykDMOEx37zLtFlRovRdnyBmXf5vqbsKFnODNq0FfXExq8budb7EUhhVucC/HIJHXyM0adQiFFCeKUwVeI0SyL4HZMZyppmtSpzp92MCfv6zSv8a1jvxVe5zGdJ3TIuyyRlX4K5sQPEcfah3GKcKlFHLhMnLWLFRQVN+A743GLooFKH8oL4uAUQ1Tn0vUfcc4V1eIB21Ww+txtoz+GGStLwmQWNukonA/3DNHx1zeie6rKhEQvU1325vJKNIL1XxXmRa5rN+UYcWEGSJKznaaJMfjlMpNC6QUrmki6yEHgjK1QfJn0IXOBWs+HVHzHK8pBB/ZayGt9n5UDNUAtAPjxomjHBJ/Pa+r493ZfSoUzSIqK1Yf7lGtU+YngPn8FQ5QNPhr+D3QiopxI99fBcbMqNT/91wKuSuhecMmNZ/XBm6a1MxEzcnFNFf9t8UknmEW6rhGgqbraDzA8qIh+prutIp2eN4PeW+zyyVF86ff12peymBWfj5/mkhibw97MjpUgjJ5mIxjFoED2GLWE2sht4mogOj+RNskTeUs6Lccch+BUvt6EbyznLF9OllugXB/1/kF5Uq6dex31Hhuz4NXb/bYJo/fkzWAvybvAGiSZdt0NZBUH4scLqK9oZJFAE0pM4fs8R0IO9bumCW3TlS9QZHVS5JKMWwthNDXfagWhKipUMhcpBNraaJiUUW4IIAbmOkerMrBLXyRpXTHrc2NJKacH1JayUy+f6niNtdUO3y8kapamhoT8Z0anzbdOdZ6POZ1P3G0bgHy9Bpc847K54n32eUUTv2WMo4Hy7AzR+CZupBc+dkqBPhGFxy363E7FGTJpSBG8+InkpfA/v/TT/BJFa+hd7Z9NVyFyDeC4TqUw3quJljVdjwzsgnfrYAfbCQadFu9cZjIjH8KjysKBo7B6jMdKoynTt/hOmtPPARY/qDO8k2X0YM05nObRCSBEZtx7Dc58CuA3+4Yv0wwLfPkTAqFsKHlwRZ5iY8Wz5zvbxrmrDW0izDXh4/UdAVAXi1Cfhvgwhk7mHTedFf/mc6S49g3EeunT+OvsywIkkR0MOfr/Z0mdL50HjzUfgQ8e/3m05/w0TDD0gyHveq3QOu8tOFAPjwC39dvJdq3QSKfXMQDAcjdZ3N9aStjVj42u6YdUbWI9nEKDOZKOIkAwvgEmPF/yNHnKZK0MEeFU+jYUfM1EbizyMpAXyBzhXcfBiMj6KUn3myv6u6Qr1YfBdS5tsUtcqZFCpZ4eflghRkw5LBonB0FKJN4AusXIZuC0xHtHTpwV2FowRRnj/ZTh15ocoe8NFpHlfr889rHJPdFYNe1ZC+Ju7HhGSCyXrWXglQ4OpnCJFIYcPuI6fTGWBxC2fvq2HBuDzhGl5RYQW9xtp3KgZsevya5vzNmP50bV78hW4sJ0OUghXK/R9puAB5ObhkV9pN/hRaLD/w984ru+b9H6ufYwj9DKwtxmaIDh2V/QaBdaW1wP/YEYdfGgFM+PDMpkpKENvG50FnXC/l30gzdX+N8sn+aKezBRqB3ZoEZmsTF24uoiM4AvbfjXMNOK4/qDe00iHEtotyx5sREBl1kp6ygFLIO4cZnbkGCy8xOATeCg+4JjAylpV1UWEwnExzZ+VPaRFubK8cKilj038iB45JgkeQLI9YtKPjRGVdh9A3eQy318GNUMTud2bWmUe9GzOZJ6JrmZvTgmvsOygSzNA8SD/trQTjLpvH+JHNc4XrB5JYGRrBa3C/TQ7jRI/RxB7Z27ToAW9V5Apax4FOJE3/2aovT/htRomufyTY9rEMtholblKQoi8WAIJvOHqZJ15RimQyGvaU6pPBweKyptX4+Px5GsogcO9Cmm08W7PnK0mYWLi6qHwRZNdjcocnsnPKsMjoj6GqFFBtrKnPHfveP/Q5wgyqaHt8bNjLjwPAGWewz69jevWFYdqj0eKtuJjgbb6lWsHza0dwJb8H+moYyuxEDULtytfjhwUhLB0Yxb0XpmtXDyoqv9ubPwYSHT2fulNuOk/kvQ8fd7RUWZ2pmac6Cm+F/kgDFONV4L6+fsRm/tGZqIKmPClEzHORvzcd4dEcJ4076q/z6oVxoDz/dRMRSCg5ERIjU493YEvO1CJ76uD10ZyPviu9/eD1X53LcaP6gSFB24B3FyNJgw6N77MnMBTG3UuBX9dpJtVTHPQbVnhb1RrCSFkasw9gtZN9/cQi8YEzPJhdj3v4b+iFJ0wo7EImgdeSdiGjWhs63P7utJy5pMrEExuAOLg/UN1mVTsJ0ub0oRfvT3lW5lfzl0WZT3jSSOLO2YaISUFc0eBOpWmZY6xL4Vy+JGBDHaJJeoYFrtSDwj/O5Qi5ua0k5iyXbKWZ47WEA+qEXRdCAuOVdKBH2iYJa/AqkiQZ30XnbZlDZOFPYYNm2Z12pjH2OJOpWZpGbRErXBHeVCsvVEm3vfhjE+4i7YXcW/TUkH0tGaj9d4lwZaP8CdzN2lvgTO8fZ8l2B4MBkfMU7wQpeQkjIivHLm0XZA1BnVTWpyhpkb/dvMwOQmCaTaI5OGQOXG+eiVBzM6jVAjO4VI197UIYps2UQNF9422/ocu98iFGPeUfg/lKrM50dYhSqcLRtg2rMxenWHPJFCgola/3+0zdI4YjHBvOUkIF6Z8sDgHYj8BY7eHAdzvUSCP0KKGTYlxzDlTDHtTte95nRc86dCnMag/9r28Un29Y+L/WjQYNmn5yvfrAFeP5fR3PyWart6eHMx9frOX0ukCKvyFfRxrW3P9JNNqOWb46uo+w43PeIktHwiHt1Rkjla9LONfQy3uuQN7NtmkKYLOuAYrgS5fWx3OoPaF7YZ5h8ICP+TTWK1o+/R3crgp/RjE+7MOF6Aob3tX/Av8n7VQXsim+q5WyJ84wJv966H/kM/E9goxkZ90wJr3TK43Sxegpcg2P21oW2Y44csMqGirAqQVAc9hF0ARW+m/ut1t4xU5EBGitgSxXC8zJ1sk+hCDsoWKP3XqyqlXESlfMIpT15oSRXyS5jUCMeHypPrDxpP5/D3jHmYCJvMpB7HuDD/6K1PCDZ7uaM0dWeffWDoGjFZeD7ZIw8hM9Ze7vh2wiUH0O3sRvxfNJ+90jSrked6fs/qk/pSWPLI9p4YvvrCMhhhLWLyI7r546iuEyEsu2FZFA3Q6fiyjCfQG/yoZcvCttsszw4Yzd8dJZs8AgrP6EoF4F9qwg/PXZyC+VixWxGWSbXQW5JEB96BpMwYG+EUivHQUwCyJNfrGD8ltCwoRNKeEBplrqan601UWUF/GdZJmS2mx3UAn0qs+BIcYFUhlSbAmESjI42zzrMs3t7Mt03SzmkeS37Nvdu2i4PkRLteyoWB52FLjp3mEtl5hAzGLZV5Ey9w8dj9tRg8ZjZEUhbAUExZ5En9ARTn5Aym6h0h4aZpsGHHzRaHD3k7kcWftGT9A7QvmrmrFbWiKixiINhQBq4cKBakMrKQVqc5IUCFB/IpCILoiUee5pDUwW1Qv0otOvsfbfYTDxF3Zy/jQPeoxU4PjUT9vPz48AU4Rb0oZLa2EreD9wy3FX+zB6Xqh6bCCX/eHnOH2fQfKlBuNmH5s3bZuWFmRZ3TLBSK2kwrk3jPc+4i119Ub/Y3tdhoK7HqFRbEZwaHgdqlTAYnTfADBq38VKe+OsEfyRJLpoezMj4g816aMzklPPQy32CdfsvBsY5ZIUQVVEywz+k8lRtCp9ISnpfZ3KykCtbvGSxT/x56fqplpkuLF/ZDOalXz+4If+92F6VmbcV0xml36z/jKFHE14qs/LgxwgmnhWwC7LjY93oQihSkh8GgyZYOIunSNpjhiv36Z4AN6rlu6RlVEKfzHjxeNUkKAbtLsvWZvAKK2kt9nC/I2CD2uLoIQ2339kxjvI15GWuKrkoGiPpfmc9kWsufrSRLfCBNpBdwfm6O5nMA+t5ChsF0u/shIkPme/LjF4fsniqnA0OZ5aUiryFCAOo/DLQgpVbTfixIWADbjaKOrgpFvAyEM+XMcrTcWytpLuQUcxtt+s3d01JAcwHJrPZuManyibkkdYlF1UPKwoTQQh8Z+XZ0lN/wgxpPt5RtYC8PUiBssnCJ04HMO9yKPHvRzrddgXBm3O4JobvIfUlWnnAKgAVSMDzUubxcsI/stvYKd2zec1eiuKga97h6czG5H0urlcFa/eyGBmPJjzL16RUN1NOwrfZVMftK4EOQjf13MD95hyd8FjCe0VHPFv8EsyONcUjy6UXg62E+qZmDaoP5CcZrPXuYWTYvMwdJo16XczvYBA1zIA0UvUkJ6BFkaktbQ/5/WsztVl84ObJZixUD5YwzVmrG7OTWoHr6ixan+YiJNDOODaV66ZOaKUFr9ltBLruw8GvJPrQkVl/5aU9RLCotD20pD8KbUEDI++rVbwJLmO7WMO5WfYj1NpYh2thO5o7lIycH5wBiJopxw8UIYPorPmXI+TaGJesOcgV3PBH5ojqlf5l0c0YMurOrCox/ilxsxzX3vUP+x/cBDPeUod97goOxnUU8v7xxJaX9lBGPwLYbk57xL++Q46S2xAEbL2Yh4dUEdavzLgohNVAv1rMIVIRfXrxXJtLxcl7fUIBbGzeJdca59MGL525eE0Ve0stk4seWaey1DEtONQYwK9sQcYEmzlmb6k6AhLBpibEejeqbBORb7R3iaRnzbZHA3pORiGZ1OMiNZF88yCE755YT1RapUXwS3R/pWioIsVCXKHBPnRCEGwP+5NuO6ffsWJ9UL0ikHntjiBjrCl/mm4MiKOQNN1dGhkirghoUHsOPq2QkIJpljOlrtpIE7ApTuo7PzawvZkYILb3nblkdUfZexJ4mxY2gwntF0jHBi8sj07iJdLzrtpLCnSs9M8k6MzARWj4NpjZaNtelwDoFbebflXIrTAFzU2W1bkdBg1yxViezQWsedCQxX6heaUkvfOAY6BdCY5PicS41eyzDcB4G3vjozWEjTRYCuSLuSZgb3/UTFi3x5k1jpbrj3P71pJhsDhoJmIns2k3dqK/4NKuYke9GoyVvWRyjmYxTeiOaaqW3xgCrTti4fCP4+jy6ZuUwT7htbhmgIl4R20VlbCDGospckrLATZN3PKjM2xIP3XqcZp82Xkzwy2XQ6G9IKrYNhbZZ8FrSX1m8TJ6uV4jJubTq+rz72l6nLVYhk+0vEm2hq4/6QEaYRHyoOFGqFad8K/yBz4mM6LTgYYXcLLmyg/p2p4slcVp9aTtIKlSa3gyyhQwrPbeB8n9JUDjQR321dR6EXGn8/sRx3nyZHkbe950hQdarwPx25ZREAeu7OENQu93J1k4GKyHscfxScGN9opWc4LMp/eDGlJEGVi0asQ8lfz+SecDTFqzYqTgGqLp/YoebgFz2Wzq2uEeiWoJVdt3oF1QJ+SjL4JQEmW8aqvghTqZ5AT49iO9k0zeurMhcBl8fhMRqIHbsnaTWHXq6+deDbhjwCAyhsJkDPZt8r1VD2RVCxTLFEClyX0+8Ilc8T/hE8M+Go2TBoLWkJ6ouy7mZq3OkQezIjDi8QhQb15saBGUKZPT8vMlqMdEcFV5Cfay4cUTIL7aFrzNls8X4FCQel/Q3YiD1bdJE2+erDmtA+qr45Ur6vKRWJ/5r8qO8P4kq/JaPDJt0oaDaSPMR5mkrW59XbrYs37GSLO2hWkG1+0/3AVpsr/O8rmmsSg8Qz0h5t6fFRqZkQPYRBId0j1uCEt57HOQulgqJfQG6KLByPFmxOE8+O9Uk2Xzq7+kwP0sKtjK1TMUXB9Rgab2bcqB5ZDCO4w8MDtDxtOGwoKz4Soo1POZLg9rLKrE7vRpvlGYg8ccOZDtPHeUbd6pbAbxV0GUHLGwrOjrKCRwE5c4/tahlSvRlOAJE6ehNe5wYDt9qkLesuCMzdwKdgDsnbAEMsW2IVxflhHA1MTa3IGmyQzoIfbgaCMGFrLsLfkE4IYwb+e+Nv9etLer6QDFiJKLA/PKE55Hei5X4biPHZH9RL8u5heImVuQ/nJhRaam93WEBgsZk2GxDXoRgFb8l7/SGmo0Az+VoV51tN/N5PghvzHtjPT5vma+9k5sznieEQRAXg2UF7DH2PtVYOFq6J6eDzpKdAixdxhCD3NmcVvGvMXxFV+sLskGi1vineY7A+7OOBU121HOuPY6X8+FiNjmBL9/yzHYd3ogR1vF2t+88bs/l1nI40KvDCF+35jb7HTtw3PoRNttYBI0L9AQdwdF6pYvLf4ha4/2Bf5xJivCN/d7/NPF+GL0qeQLRGkwuEpnKK6ZeiXOtvaJypv95Diyd3CoBz79LuTISMen5jYChKdMX5HdigOtKf35AvK7xD3uk4VKy6oSra88XP4KAF23H/aDCaedabsoytUucUYQGZSi/A4q6J7OHt8EmdF/x+Tt3sao/2Ki1fdI6l9zu0OIc3QAvc3XNaXGrh5aF7nWa/H41vyLo/seagmIHSfVKciuJA3lf/KpfE52KV9l7gXDbxflDxazLsywAEyfFm6EgYHKVT03qJXiMNYr9ffVain1X1keCrMMIpogrEhlqatSIo7k1REqV48nuxwWKbv4YWjsYgOG2sQklERlSNLVmx7Ye8fn1VqAIyBO93IJHRPFptCF5AUsCYWUj0634NFueTeHAZSnH1brHLQ9oecF2p0pEpe///qihKrowteOk9E4xJ2RV/NU00OL6I2NyngnEC7Bn+CmOlVy6w8yMVtqDo+ykzV1g4CapDibQERKAeVRE+9TxsPyMI7IAC5a5Pl0cIWjmII7miF91lxzq3rOFUYS3cWz7HFeJ9Ox7lyNrojz+NoPMdKvewINteCj5mV16rpl65xh6lvytIZ1mnp62b1tNqsc2ML62idt6KEa4bAw4jaSvbj4qkCaDTLdto2UHCymsZX8B3p0+rT/GSX/Iu1jFjfw1rodx8A8O4aIQbqsN8LQlQcbSqaeOH1GjmtDRzsHqjbC5UXlTVTQVdz0TcZB00UOIm3Nifw5jjuPjHnJNTukyvpV8NTQPVlK87UmljcG0b/EWBSgmUI6l1uhIkX/AMo4z6oGt6zmZT+GIjVExfPbMrxSTT4HTVGmoe9qblNCXBDCR7eu/ZFNRIllLMv+AI6c/VRjmoixKr7Af08XUJjScRr60YTebbPGt0ndZdQXMG501HSopUOz1MdqHlEa1SHK+rSf3cLvVcCN0N9dCbUB1XCirNZYE5CiFKEsrZlP1SfyT2eMNEmS2j9rHIBFlCTPHHDjO5vFe3oniVcggS/Gt9s/qZYVJ3PfM36+GFFbyONQbqvPVG/M5gdE3lUL5WwuFpoHwN8htan03CbfSgc4uXMOWBKEFCjZ4Jg5Su80QKiD0HRCsjY4ejW6fKx+2rbf7nNR6PmDi0owDz8gu9OWBsZlPLfYox4xizgi3vtQ58Jx7pogceMNTnD/ygqNXbmIYpB9J5PSBGCWHjSY7/Q06joFp4lG7V8c+NeHloCmjxJuJVD9nJV0tYexUNot93RfyzdwmiC8taQ327XJCayqL+4GZohUiA0ORJrUHJh4YS7vzIMm12TxMaDgs8mvkes/Uh/4ug9Xjqz+1YQzWQNRqvINM2MsGVhFNppUG1IawHjuKQFQHQ7x7etbsbqHIj60z4IsdNJr4YRgJdsopu/nYdAkouIziJRZNA+iSgWk5wfOiKa34d18Ya9eaRnz5P2K6HaiVulmlOWVm8JHZJP/RocExfmG1aPn6G/rNTIRnDJg/XG6znc/qva46uwMXDp4pDIj+9XIECgOGMh8+v57E1BPFujVhIdUvMoHsFLaDrF3PuvBAfPfmFGDBGBZPYn4uTC3hFrkM9fpxgOJPcMOcKX14GqLi3WsnsmiQqL6cNKHzHfnIGzpaTL5PbPPzaeVCJNU/KM15od/pon2DsOet8YCQTvGd4Pxd5J1q/3PM21cFpjWKcKEJt6LTQrHWR12PP/SjawbTCE29Y2gzPQhlrdRnwluOeKHjZms6EreSuZyOTwg8G0is3XZEBItczmjK3sL4NUs4cgdFJx3owotX0huybkVIs+9rJuV6CNqRljHhtz/dcUfWLPoR0XSWIIL9O76EALy/G3kp7FHlZv5yNGPszbxzEHxSOAqzHaN47BDYVKV0D333iymiyXFl0gEsOFiSDNz3TTHU5SMCPgLANyMhaZBC7fMp/sq3bHfwF9JX7mW415A3Rwhn4YWLVjLsA8r7uzZrunTWKJ1esGHhBdlrX7mJl1fvlAniXmOe2f591eJxN4zJNUQ278I8WRyYCY2aDKIMY2Bjbpy1Bx2nYXSHLk/o93dtpXSVP+z/n8QgyE7rDKrChbcPDAkni6Duzaao8DvSwjDnj4yqRbGJAzauccGWHWGTQOmraeHBb3yaBciz9ncS67nFk0Q7b1hN7IbVc28V5SHVFpqPLBBXme2bbsQc3Vsv+68O9jjZW0fFYj/Q24mVQumWVa/imbpQIP3Kury2v3Zk7UIcX5hQ4OPlFJ2mSIb0w25JwrIaalZItlk85MesWbVt73sVVEQQ5MP7G8tqTyARjCoHLddodzQWUCT1AnYzVps4MgK2QfVn94vhWhhQtv2QKvJguJ7qzzJSzE6EM+2mYEfjITAeqzOyegPb1na8p2PCkZN5p0r3lD/WRGOYlF7XKDBDB8BQ4NZiMby/BlxB1U3MW2NjJmZZDgpsrC55NKZKLXsxscpz7+ZXS7iAxe2bX6HZHXwMyudOHnP4snhabicjz3HQ7CXkzWVu67iYg3qYh5/BJXzT9ZVd0n9szh/NSXI2sT41fiEfrlRRmG50SeD4KwA41ljH2QDUB9heAs1jr2g93SS7jTgrWC6Xh4Pt6lZQ7p0tQ1sSXPNn4Re+VgLJczBjmoRTFqQs6jwTu5+SWtM4Wrrxc8Z6N7rkyDe3qXfH5ha3MN3M62UeUz7bmr/92DUhaNXacm9WHQq5MCbgnFJSMP1H9leOF0KbI7bZTE0EFKDx30hDOuWpA60VueYQiFdlVYuCYtwh++KJhyCOhFKN/XKYhJVkWTYyzoyXfm8k++bkcDb1xqUm4J5U/H8vkm/Q5PDd1tPw2B1WsUOzO7yReG1pEzsUdQUiO99Fdu5xqbyjkwkoAVEV5fTJqurnsx7EYJ+ua+YVpiFOTynWwRimklLyW1iBEqdUJQ5b+9fv18I5sMQX7/JD9HhYu0w35dM069glWYIdmUN944r7eNCrvlYsU2gNEwcis5aGkyrYRKbSZv7sQQ569x20jV9DNtUZeg220kYwD7tH0ZIOqXUZdKO6PtTr/QSfU0jO/RwV31t6yUmZq9NEDKXPiMDlHjHE5QL4RomTBM/Jz9W/I1pN2SAjS4jiKS1y8lcbeS/+URXvHAIVO1nBKKyGX3rw+BFS7wXo4NeReVW57FoJJKiTFbINqZizKUbKPThu1OmuRrZTzrUnka/520RtsSsETiQe2DzjUzlq7ry2gsxh0bVQFb06Y4geN1lDE2cQkGcAmkxFaKHFIdOlsujhLmJUoGaVP0MM9Dr+gH3z7mjT5JiP+UID2UlyS2bK832Mx0+0UE2yAHJ3QS7UXLrS4rtMGOo/Az/HOWF4NXS2Mfj/7Od5Fr4rEz1p8NCqWDz1sJVuukYVUNwHEw3MIkijqKuR8UWMuviReToHclnHoBRf2HE3jQoPFwYe6uRLoOCk5H+MTy1SWWHPurtT9b0SQtQhTwZ4Uo2hndghrNPHIQCc+Eelunra/Aob1JVAPjk+jWVjarYAhs9XwfdI85rcjhaPwEhRc8Lqg3gjfr1Oj8DLJigd4/CgqtPOvFz0cnQMlE8lIfG+kDoa/96r+LHeKJCr0Hqv4SOJzvV07tbkKXxeOhkS5oZ3tuzm9la6uAcoQrXNHkiYxVIIzFcNdfPIAeLIi0v/UZ3vGNkExm0LAVLkMjlfCe37gNA5crTuAWogDc/iWaE84koRTUTfafLNQHV6JFk/pDXdiekj2xikgWgZQRIwrbNeVTVvm3PzwC1J6F1jaYR5XDPRzn/YG6ZUHIDNFSEoqhlc5TTBC7SQ3gY7INhewqxf1a7cHxlL9GnlqguqLMxjJQqYesxPrdOmlO8pXRmUbLfAWiHqixHdTn4vWSFeVecZ9MonxUrGlFi2Apwr/8552PISuIYdmXnzxFs2q5+6dqc7G1z32NLdd9y6p3SVeNCPbGF0voFzQHYu/TLo0dFwH7wb7JMmBhWImaKryfxAYbeAHZe6FoV1AWjd+4q+B/AFPeCHpa/vgpvpIgzZmahL8YcGIOQ4jS3wiFwZCHc3aotfa9zNfGrN+DhpMiZZrzW6CedaGycNXuBpOGA3TSqX1VPCtCKRyIp4Qe4XrIPcSEsVveXRhU4Jg2N/SA1sypSl+uoJLZYJYIpaL56WF4o4zjv1k55K0FHVYZog4UnW1aGdziiECaaCFqenaweG6dqQLgQsNhehI00Z1Q2dhmYYwkasbdqy4OXPXkdyGLy4T+4FfFZPvFTh53Zx3ambiC4CzvLkflzlb2VN7H5Nv3VuVbbftEXe4kRP2XcLRptnpcpn29ahPyUYk858iVnby10HF4ENhRrWrSxYNFktA8AN6RU96wg6I7GCKLlWIKkfHSslOJfF/Ds7jgwxHhwfzSqJ1i/sE8Oe4gNaP5jSbELrhxmdYAIxyr2sMb+iJguzcZp0POqIPWfhXqGfPzzC1U9hk2Rah176NZxadUhU9WdDH1n2HXXkqm32XtkdlCI0tLtqO3ZbLNj6Uh6FJcYMGqt2nobAZU++nXGF/aYYXGFl+bwqVsF5I9qTL+TFYUw3MKL2XoN+9sYa4ScmRMMCJEPqB+27+SLM8V3ebr/6VZXdtY7sm22ioQtAAERCi0rErdDLKFUM02d2YJrY/EbzsJEtHGkx3DW/MWaZ5HpRAQA+KTdDmXRX9HYNC1tN3RQ3aXXSxFjny2dqKJ20hTorT2JmK/GuDyHqkunByJYEO6eHVHoMAUyJu9rFcx4nd4/1h93zNX6S5cojoEov7ArgwAIRVjEOBxx9upuZ5DhPeDzC7wiTn4tLqAD9hfDl35MJy7JR5gji75u6LLf2qc+Ca4o8Un9TmHN8KqCEmrfPnwoDVB2Dfc9Hm/uC4TzFqSjK2E2QFvt8ZQCyCzP1OvDkik1iJZNb/Wu8LBDb0Rcq/+F398s2KzFnw7zHBMnONjTJkFSH5pFx/HgK96c3kYoMaGKmstWUsON88gT81tap9xsMzGmAaAO2Z6erhWHTgdN34ZRZGJ5E+8H0RaTNG1fgY3h+yedxpFnbKxhzQqoTjOp+lkTzmpVBPdFmvIMm8Ne9oczJq0zIodDB9CLZAXS9NLnO0n7HxiX9i3VIxHgnvuk22aHCNzLC31XTS5ISkVnupYa1ZpC4Fzyt4M5HqKwtV18HrX/yG5XiT4a+hSiRKPmmSiucJfndc5F5RZd223qAa0pXHKKnbDX1dF+NNDEr7yHj141WDSl8J00Vbuoo6nkpPYNA5QDNOqccaAx4qn8bZfAM6JjbNMYDh3mjVDplRw5pQmecRmThtppbh5V0EdffhZSExj2pQaezG4bW0L8PpE7F2MCTsD4j2H8nKsAuJ1MomCMrPRvmorRf0DUh078qprRe4veMCmsQr2D3Fly24IavoCmtmiwlbUGyQGzFU5LhZhy42kkF7noTd+GOmAHZuRKiotBqIcr332Sse5IwP6KBwphx58CoE/7eFH5fXwjz6q9jlAZJfseUz9PBDib1UZC91QUYr8neyCuc/2iyxiYXYkc7cWM8y7zY/MZZY91iK4ejiFU50jcA1dwkS5jlD4VQPjNjKH1BvUvfOCNKK4RYl+huA68vcGUg5Z+/wCNwomgySeqhLfJ/GFnKZ23uiR5epIHaSFDB8WYw4GQr4i8LF5ufAGcd9Gc1Nz/XoeCFB0FJvKONP9+2irVj6CzpxFB24Eo4ew/Ol/NOjCtqEJkTdxW8algRswcwTnrMOxU6Ec6kp0WzLZ8OnHpMbHEljcJqzUuO5iUKYU9u3fb6eX+ewvWhvfqmvnWro1Uoyn4zE/4ZMq+pBQMTbPbg87WYBU2R2eRrXc6Z95zgA9980xHbbTbbgcfm4iPWWhzRobgs5k5gKr0WEh5L7QkppH4foRh9JJevZT5dDb2GKhclM69ySWygr7NWFKYQjbTBsTKXzhU6a7P2KOB9br11iPg+qBsrMVw2UFZZ4nLB9974Gr9Rb8o1gp4hom0aAc478krMXqexD6avb7l7YZRM/+HdKi0804fpdthg5zEpWaAYEPF5fQkd+6EbmdEaAUN7O3iKoRK3PXeLvhHJVqwonELnip8ZldmlEJsbxwYyx/5UlARcIVF9SIDJFB9gO1Oa3m1V4Uby0ovApkmWEE0UNbH6bUJVoFIqoaOyDosNfCAffVHIskfZ8JThfjGpHpgjDUW32VCX0QVcAtxjS1z7XQulLUxhOxFfeVttGvGk2itEFTlaZEs9jc7Y4X3eeA8MelkRS13ep6yZOmwAT7vAYRySMLFOMAoOkJaVbjVtNsl9iAaS6AaXsgVNqHDHzesHajf0kUwYf3UURp32HimqwYAQDEJLxRrpvgUk4LglmL7N3M4bG43R8e3SPOKLcgSXZAg0siU+q5nJbh5siXnDqckhNQP9zyTmfAc1ICHTapxmP3Kzhp+48Yog37FBwbxRFKJm89gK9HLvl24SU1G+BHqFYKcqDTFiP+m+RidKm4RMmWo3Vk0yGsJgs6yqgJN53FOTZdR/GwGRg7mA4slSY69ZOahMH8aFc75ehCazmlNQlSXbTMPKwsg2cprYNj/YEATlRY61YPMBKArrZs8RdSDM2f6AFEp1jdJ0blzXH2iF7eKlAG7U9uxNDa51MSb44waRKUTWoUBf18XslJrgLfXGmODFrOSlP9GSmHClLe9qTsFmRislCzrVG5fBwHnDf3TVJiGlsfDPEl3U1VUOVWj/5dCKrJ0jZ4EVMxTazduoiKvQEugbjSwzfGo2dQK6pfNicOlPn5ljH61wIZ077alw0Y02B8J/aXo81DHeZ3B7fZJZsqzVW5Tb/UqS8PV8VyDSSGDVE3NsfWb38hv1iZisaeLGbuRzj54qf2dHOpug7Vc6bCPA+hZEf/Yy1DtyAcudN9PNsYFepmdizUNtBng+LqxYYTE8Suddh4mOcvcmPxuLEuxOifGATSy4Nh0AYFtHdAcZFk20cQsd4ub7QsRAPaef781Q/kLEUyMX0kNlQHRlDEIFDeQzomzsF0NP0v/gmELGD9GSNLhY0q4rjaDiT1NtTVWRRk+UpokgaDpiyCqKmR/R8eJebg9bWFzySY8UxFhJWP0dwnSlyIfy9MPjcvhZ/uszbqNTBdSHXnpGPz0PmW02KDTECBu83BfGLEKM4rDL39tC8gDYlL47CD+OnfMdWEPWen1TVTHaLp+BygNpjvjbNG90JQ4u4+4eX8EoNFGWeianRFtTo4VXukObU44+B0JbP/yaPGNhf4sqsCas9t9TTPQTgHW1ggm///TOgxcp4S0xJJmUWf5I7v6fQNDLSI8XXRg8lW3DGUOpzbm23GqNvr2Om9SgSDC4FkwRar3b4apBOCWsSlyKZmqdM5g2IWQJTrgHxT7CY7c8D1gYhbeGHWL+Z08Bnk9LLPA8FQG1Azb0bdszB2Z0giESw/59TvKgCqfeAf6kfdmhpLcFhBvk7IcjLRTpNywuAR+UTCJ2UbgzTXwsgY+Q4kJR2atpG0mG7hM+jtshorGHOOVfl/W+bV/Yv7Wf1fX8b5Ppq5cUJOGCCdzHCc45Ed2wRWo8jtNpsuOz9RRS5SGdURY8MjanGhytikkinsq/lQoCx13CGrMD3g/6SaCXh3h1r57KeurXl4tlkLlYmmaj6Wo7IRpD0fhVXsMp8IWfkEvp2KBJ81G0DMaBETqa1BE5ntonAEvd9ETmQiu9py7spKXIDhF26Icv5FyXFk229y5SQdu902eX17pEiBduqi5tUgm2b4ZA0Y2LCqzhJ1gZV3W14ZRWGSxndAJBZ1M0OEab/zqwB2olPi37fAj88XCw6ZvnzQPLyZ9jNmHzlbnn1Yl3zbeFquDLcig/TIn3gSeoeo5o6lPwc1KL8UKakYTaG43Utz1zSYephFwEy8XQYXSuD60X7HmmM/3AGyWAJT+3qdW1+/HJU90uYweoSXp7T7iGLdOCdiptCE1G03DGWKHI6CrxiS0qMVG5ssKDrZyz03xsPSyxHpd2dcv/arrCrDhOXtDJHj9p7dWFNbSDSelM5f1swEoJqxA+01VLWc0IRZhMSR1lVGIkexpiVpFSmtN+BXsJAzr45cE+zVZ1drfHwj7x7pOCUl+43iWOy/mwx4wUGLm7me6iNKo/ML1wExSS0pjxi8eMFJeMsphf1Q+xMMiwJIYy2DikwLZddtPryhZX5V/Tv7T6uCfCxH9Dh48vGiZA6K9Wl8p0cWNZJBF9DB450nKrDZT5SldGI3LO5JbQk+hRQdWqz5LcQYqN5oBgbtW26LKVD+D/GtNgvi56SFzqtCtI7309sEIiMALlHYuJNPOC5b/BwMlBScXHBMPBmARFvpPQikfF2ODfsoBVmejZZfD272c2BOg1iCNXBadwKnXgD/rfX7sOyqozKiPmTafuAbTGEgAxKVVxhbgScIvJZK/z6/5j8Qxf9/eagHzD2EpzOhxKoe6cVQmH4BAAyNAfq3oxC9ZbfuZPtgQ/YuaUg2CFijEdQCsYyUQRrdmjW3rm1UFB/EklyXHuUL7DlHcNH8TzflT7GWvu5wkRHjqGCfwAmBESBJ+47qFJ2U73mQE0rEygiN4B1juLSRPyzzPznjtxdhNGYF8PcsWxQckblZQUwrTADE2InrI4uCpFCVAQY+zm8Q688kDCcFi8BWN/U4/YslpYD8ZdAjAuogdY4KkGgirA8lmC1G5FIvJuACduw4jUbwNkb4HjGcDhL7tOD7qPBftMlOMTgRjWmvvob4pyxyplPsLxHuUMhxaF2H8EcI6qIkyhZWhJzOiHNVeCtiwfmGkXmtXdn0siLdSEmI2ihcs4HBHXLe/KKjIlZnsiDVPEu2YRNJte5HXXw+rb9RRjlUh/55OfgpxYzPP+c0OrBAJZO9Pi2PiKuozOTnAWfYVgE233fj5Lv1k97rADJgCEk5TAJ6nmYYFqQ/0MQXF0r/WMEPwPNNlsZObaM3xLW2N1OVdu0LFD3Yh05FK6ucR4S8ArDJ3cVwiZP82p6Oz2oUwzwNCMIH9p0Z0iTh/mEs8jU0vbn7UxYlbIzP2/4aH6lxoFKwNQA0k8iOD36PxpTsevV+3yYzyjD1tOcHtdYd/8q0Gloqxo1X9pJc7SI8reHAno8JepuyamIpiBhop9ZdF6fH5X2A45ilaTehYKU+htAYpfA+tn1T6wB6O895oJuvpjInaYrRE9nDN2n87beBRdQIE05LJvzJc/l5TVJ/EvACbx497McpCjpHpafbsWPI6LmaQblpDeFcLeAhl+EfOtikLHoBXcOwuX1s1b/ugr+65Aw69A//NUl3drlw9grJa+/LBmha5cT4mjew9tCWRqkAoq2VP3ynAMyMMGuCpIFaU/P7sv6RePd5efP9yXKT8GsNJw0IoZ36bAuHTuB9KY9TjuHpZ9YQaQxdre0NloanOqFiKSSkBml2TQhpCAfFjiJVk6W3KLn6I1Y6H1kZFqBDuAh16g9hZi1O0zO2OABSfmvsr9TMuhwHXhMNP4/vcoKiSrDkztifb03bNAKojRpNp8BbIVS2MK9++HjpkvOX3nj6wy++ld2M9aPy6D8wVFHW2DAEJzXFef7+iO7oP2k17jyd10BGRoLLi/oRFm9Yc+BOfEGxdWisRNwboKEc2LlzZXRPTxIv6Uq/iNM6F4m9dwwFB5aYiFV8/2psPzBubMdzOM2ggI2GHQcqZDi4etW3mqo1AfHkL3hlH/r5radMs0L9MqQvAxubspV3DtrCU+PVfHvqgD6zCuhc65zk0+uVpWhPmwqsgbYq7Jd5lSQGxVGHKyU0EURNUDMfzv9c+DJVUiv8Z2ISJGCaObIUdSn2+yjVpfxgtOI2Ol73Ig9EwmrXgVSKcldAVFn511iEol9heaXDjvlgGgN7PqN/ua/tUKBfgOWEk1LM1CVWyiyu4+B2hw+ochu5ZETb7UmGtIPbe0Z6b8YPyJ7BVDTZ2LGgUYRFbMziVUNHFklAsXxSxC+Dez20nxR8FMkF2B1QZ+vMYulPw9HetPjgsyVh/sPi9wk9T2NiHBCbquR/2ocE41/QHex7UYlbFympRKArVHCdrOQ4fwN3m14Iej0czoiVzchSE+ZFUbVoDheixGCkdTOawd7kXxGjE06nHfhzN5dFOZLDjbwL2ZRQ5aiVhfTPU4H1UzBkABE4R3qMkEh9/il+rLlASSjOG3p9VZT45x5wWMHnD2ecRCMRqdrf7VgRy1PJlrs0H7KZ7rtE++FVE+wQ0XrARMxjQPDNlu12AVkMitwpEhK2gqCIQ3ZbAU4DYmGM4KYLSEA9EdQ2jt8Q8+VCMb+2AMhLbEwGXjDoOzZksg7pmE1CYIhKASEhlsFDUwuKDIInXzOGCnpGyrkkieln3c/vHIrcmDFiixG2G/oA22gKZBV0gqCB5RfezFtVR1K9i3q57Aine2exzn/pzoz40n9jRhnlYld9VTIwCV63YzxLtHnIHfykFJ1C9Bqw37gcKWLJxPvdOcfpO3+26Rl5j61lUQABhKofFldlFcAVG+Xal9lMUDxA0JP3wh5FukfCmxWoilPg7Bt/bJvymSXlurUN81KWQNJYr/FjMT9pidg6CJ6EVYYNLHBnrf69T7m6o/+Xz5fYu3X4Aq3E4qJL10zeZgf7w14Td0BXelH0G6/uNqqgPeZELmxKb2jzoQmJLALyIlMSYC42tKzKYF6Y6nIyk6zBAN5NQKfSWmHmLsJMuok2bQiCLUut4m3XQEBptNm4byM7Yth/i9PTmV0aQo4HLIa7nYn5BvleUSDhVAFIwyP3MbI1VfDaEIEdfdYsKFF+LWL5Iy156/OABkhhGWHgaSCJ3l1iThI5b+kNxKL6IXGKRfZBrRO4yzfZwKF+QdGcug1gYbCt2d7OSvi0CePnMDs8jX1WL7gth1LawQl+3vRgA3177s0RH2e8wFv7dgTuyk5E1Ov/QgloQAh/tcZNR9Wi28RAImTvBdepO6PbKR1/Z7d4JT/sX2HmVGBk66iAeop/uMElypOESVf6prNmLS6Fl/lJ3A76Q3wZ3FLaBMNxyTplCS3gZ3/D7YtdwaTB/bEKzbyI8fB1z8GtQmzVvp1RJUvAY7m2CCKsrUp7t0ryYL2vwSh+FPES3Jc9CE+X4SGhEvAfPtnhDf+6hbfg6b2j54fazb8O6tAzAIYAYZpHadPZT3R+rKpS9Vc3IN5up0JDP1d/BmqJDjMbVRFlUDSQNen5FcMw62wh6+LxaFn15OoLyDCz/m4dAGok5vFWd3bC009irGQXCzm6OZxo7PWVgGoVNKgFf5KMaM/FzpTbOi0+wVjtp1CDqQTw8t8mgo1tV+uMXN0taewx5V5vorMhF232KWYQnJGJkrxXVkOMNoeSsT0tUybUTOxFXjoQb6VKnTrTBBrgK86/C11bI2+RD4r1IU/75wn7jmo7z88YSze0thNk+QzcfR+Ab+XcjL64U1o9tY7d4uL9kYGvrBDrzr4iW268wme/FB9nlAPiKcXnMpaqi6PwsfaDw771dhkTEi5NEM6uiIy7hkSXZRT0YmJH96Cu//tlwbpCCY7/3brlVGRqabLX8O9HpEm5Soaai124mEjDUsvRLswjTi+XmNQ5sSnMwZfUhXEOaC8cjZEDDyUIxIAb+F5iyFnh/W06iHy4JwrrMEwswXx2GjHhTwsR39Op7zeUbnJAp+QvB40fqQHz5KLDBgZQqGgIQNgKJ4NxOaqjAndlmpPWEqTSDvo59AaKyTKZW/CK3GgN86DuXYu+DqcHVAiAI4qr7bbx8tag09asFssjQ8pvtGouEMpKbv2vGGBPn/VpJL7eww1JpkXYkWqXu7AgJVJsLTxe6/USso0f8BDUUOmgW/16gJ0kHWK2VrcV9xAa+8NIAyGD1w1NaGFD6kj2JhtlKab//8sW2NVQPQhJvnwhuEPzgEgxxfra9fl5wIxeErDvAvWHZkDWs+HzZ9pMpwjrDauG0ClRIaISnyf1MBB8/bkyee4Io09djTgarWALIrGwjaIWdBPZ6Z8ZhTYr8eQFAgvuM7mhHT5Oo3gfeCqr5o6zLZ2voo6PdrCPq+7OXRSS+RBt/THKdx0fDUtCv1TvELnkcGDoRmHLKaBn8+dOrB3Nkro3P0GKSJqmJCJ4D+RAVguWfqrcwVQvb8xgJVeLhlfMiq7WVgepqCiwvv7Jqdd/S+NA2SuKiLQYmMOsSRaCgGdMSxhRHqubIChgYL8XjlG1hvo5PmhTkBjvLkmfhrzL1Fq7UzT+hGHW4CBFgrR12E97AGdgIG5i6K3nXjPhElbx415Bf9TfCbaHtjhfXXjJZKfxXgTwzW+Rkl4OPE+l8k2y1K0T/A77S8jKBiNX2mqAEN3yKk1NM/V+tVoVJ+LTg/8QQBSqgBLz+bkmKwaoDH10xhuzppwglbARiKwRTsP9stQqR2jngizy6KdwGE2ZRLnaXlafSXvgrugshPCvP5bOZWsEG1E/5EEUvIDBiLEX4rhWDKCO11gLipLItM9GwCwKU8E2vyBMup6o6Zq7yagr8qs5lC5SWlme7dpJOa6BwaUDSEixHOta5gBe1dPYA9AizOS/b73iHU2RTSh9D/U+HwhCbUcgTQEihOai/wzOhegtZ/U2pdstK/sCn/mz1U6K0EpHlp/ikDoNoejRwAhKp3jZ5GgNmEySLkt/wnIC7oTTMZZEIIAEHQy3VC6rxpRzPxFWPsxLElSkG5UvR1wOmvpxDI9/hehrZp7sD3Ml+THiIV9pGKuyJrwb5fXz8QzMUsDkYKRaOFs5pW0PI0SxuEtNGoGI0lAhkcCwPv1/fYj9xBqGp80d7Sdkb3qwmODojv2fWVxG5Fd/iPF1807k1WeL9OK3bq2nUI2CkCDaq4wEAT/1inOK+baHeI5i0kXBKJ2AeFqWZJBs9MVdQgsBmJDzlHEl1eOAhO2jmuRd3epT6ddoQSK7zACs0svZ6D1/tvUKNTeIhu8I8a/kVcH3ErTOQXArfyqfoERjMO9kv2qvV2N9p9bV9esv3ZjJ/akje0vsIqwLoYLMxjTj/SbIaIIHaPIKIduCOIyTiAw5jclG8+zW1a3/eBX2sKI6oCutjlgl3Q7nFuUN0LV+0CtydN825kavb4csVjHKuDMrCDQXmyRQKv+j8KSELKlfxFVdmfzjPES6UgoY2r3TuvaFBTwWbeCm7mpY67/F7olp4t9dioFXrhKbJ+piX6ql7CG6+vcK8TKkPLL2WtZkPRDq5FDzJDGXalbqOfRopdT2091/bhLagbfpmeGf1wD/HNIJEgi5fCVeh8ol6y10LmW3e5PE3OWEiZCo5PfKSnoQyBI7oqEJHjeHqkEcgIQS+En3xUClEzC9Sf9Wn43hJyyFLbDYGZ9f4y21SMO5bggdBRLk/LD1Gmyg3Wjb1QpawTwzBVoreYrcOADe+GawTo3Fb846S2mo0OUmOtQ0INzJge83Z1zORJiH1cTFXF0bx4+6y55QEhGGLBvmeMGPActPu6QnLK9zshwCB/P6KPnikM0BtrCI+G9QwrJNQ/FCqGrhuULXGZZLa0Y5OqdBOsIq1QAhKwTS2qOYaa1Aabwg6+p84GvZwkpLh0uOm/pVAjPcfAXQoYsTEyiMA/cHBIrPAzufZ5uQC7uruLqf8K0VymS5sVT5alqTtb3r+5U3+Rtlc8kFFzzdFJ7HNMpvdI3mttPP+QKtBi6Gx0lrXMC+60EWxD2qflHxgtsddVTUTYaFwbDnkSUZ69zfe/2ria9rOFW3EsgZlS8dFrvLCkKCb65hbC1ujSAZXSPJGvLYhZHEPrbL0/AW64RMWiQ4pet9de9guws0BtJmlS8+UaNfxB9FSqhHXsY9odBiPqPU2MUJC0a++7mDK/m6lFTBnhN3A7skEhVsdSAwkFfIDY9GAAOMqs/eub16o5RDj0IqkfP3Rj7Ubzb9qlhyNpmINGZiISM2cEZwZkHaWHDkCF5F/afNP66YyxeL1VZznMkSmuZlLJalg0hMxuv8X1wZrmY3i0qv/5YtuS8XEl7kCFPmpYL1sfSvYyD1yHPS8PYdUe6wVSDcgz5MiG83ZenUdSQFa1O93vd6ZQUD15CTZF3mc3JynWz4v5S2bttMo6WXRXXx1FBZpzcn6HFFnx6F0PdObStG4g4awI/Cb7g02dIuR+isvCr2R2EvT/2xD0S4T06kRdGIInF79HLTJYn/ya9BSfggA2YR7QTZ6bZ/WKs3iwMG7wu0g7te5XoPm31LzNZ18xcKphIX2VwSzNSZc5DQH/LFRtG4klmh0Qq2NQ7NIGoLIGyVji8fEGNjlpZQvvWee7irk98Vz0EPDx7cAzhBt3E5GdJpTmD20aT4wW1eS4rGt159VY1oY9YAgbx2IUrth4qO93FaaQEWZjNAp4fOpVN2/qo+Cs43w5T9MIfZuf8B29LOhWDtSpSGtV4SCrMN4rvRo0MryX5gD7AmqrP/NUJC2NmMEPU1htdfAlCXCYw4keDwHCnvMnVerQkS49NwhfbqZrEy3LZpHmtmnx041n1fiZJvupyrsTV8OZkqJLA3s9GAa06I2BeveMHxCAAbnbBXE9kRSqUjfEx7XprlL0cxVaC+LfYBQOCfVkaIhm+0xA9af0LyZ8pL5AP6RLRtMsH7+5dBaodAPtmA+pRqKu0W0x8vEBvDla5SA+Oj99lToSSUfZeFMc3R0XDuOmRcXji1IdbjH3Rddkij9vRKuMy0V6voAiB6FdLeqP5pBitP1uq1S72hT6P0i0bAzv6atPq2EVFbVNm9Y9mrV8A3dnYdcHSaEujnCVpUMiRgee6QK49meFjhpRR1+qVNrlzw+0ok82HRXaaKiwpMeCEXIoxbcdDpVKL98fQDwcQop3SFeCRKoPmkLm9I1Gx/EincjIjTLp2GmWbrh4XfBcOt2LeDwhD9JrBpbCi06j7iPSIp+HTjOwazZXANT+21sYkb7MgKGPQnAggesQ7Fon72FXcq7srO8oHGpSoMmMKDECUxx/JhVEcxrENApmtRhA1EsdX7UNCWQOHkNpzAvdOc/o07oFfTjwznty45svg1LKTyqmRHnYpC72EUhIdIMvJa9p3lGfIcBJaxZPYvr5LCsTC5Q1BXTNGEMO7ZNaRzUeuFI90SgysWmXPUV+x6Lkhsi3jrgcQk4AkQMHZAkMoZjLYhugUFNVkU4dwYGv7DUc6FKQEjii4aStweqiNXxEeFowuDdbDGT3QtJEq6uBejZV/JHRYkLYpZT9+OeG076HkyC0BpClEonPbrNTKc9AofVDW3dckQgwhBtcROPkDwuGv3mp54pZVjqFg+H8fAdLWyp3sKPN8auh1OUhZm45yMYxT6R1tCpcjBAjP/aypRpv3Ku6+iR6IULZP3eeG7XF5C0CvnneDbrJNwzMzzLvBvetXG3vRyhIRXWGbnNbIJvpedka6K9xYR9BkZIkZbiQ+xavoseTZnlA4kfQnE2lnyV5Jx8tvwBewZYaQLs80dtbCkXzZTYZMI6vmf0gDK1NHz/NnNEIHgRP/eWjsbDkIVv7xY3nXnyF7RTHoMzM5EfNTlFonv6Qk5hcODYf/1Znf6xTqxtjN9phG1kpsPtavqTiPCgy6vWWncki92omhSGRSys7tAxLN9bxKnpUKnKRACnd8vGygFr7nbjR+PLcKvSGIJGGsgQHwn5kiD6IR6idep2LiGWlYxOhvQvjWzbCSo5oryA/wGk1Cjoo9k60al1u52imvJFWdohLWk6kd0iJ56L2Ykh/O9FIK48fvYFN8UbhP16WaEihfm2LJjtACDiiuYpDr9cfycWwA6RB+0ftV03+dV0SaW55PXEulA42kKvfI9jtmjK69oB2yvt9NvEMbq15NQdy1/oo9+thB9iHVA3aBG6jHCyfEsQzAXv6QTd6wzzGN1BOgE3rhlAJ9jK41ZBnQpb5p7pFpMrX2XyXL6Se4G3VP/BTBcvVGGclRjNozoM1CZ6NJ0hWrTeIGPEbkDw6gvBR9Xdw0l4sRe6Lb5E+6JhVkM/HP+JQJIwtumUOWFRiC6eNRiXYf79Z8xC/7iaRN/ZFQohrynNnVnALvuNLyB6DEp5OVBzt6w+4Adt2BVnu/2RW1Gf7f6mal0tqUGC1QcRPfJwUFeZyPBn8PYu862/juRzEo6RAnJviZwFc5hmgfnDOX2fP9uKxWy2u74wDp1zaHG9ETtrFTOEfpnltMDM4TCU8fqAPQBW/AWDCLJD0IS5+hjQpr3xm3pE0f4BkSYJwBU6icFZBIKMAan8FG072xwKX0KxQzeXrYprTse5Z/9YFafNiPnNIGINcgE89mqGXhLRxsgQTuaGfOpVbpYS5CZik01skbT4ZcDOoiIlLDugeROhctR6M689uqu2MO7Z+ITElViHyeauH8ayfGpUEypetoFkIUhRWacLk4r1oHbngXUvPeyqEu5nXMCH9NW/DNNjGyZiErQHE44aRESJkVXSJL7hV+8HonKUnHtV9DRWMcZdyXf2txORNw1afbTUNSSraCyG6MP7xIG4uuAyKG9hs31ZbUHKJF62VNaL8/1WoNOPfaZGT/FWOGAxqFkGqaBVLUVguZtwW63VqYzmu0EQh5mD5pON+k4uKSrCe2rtc9bRL35JL1DB+0s+fbbnjs6PR8SHMHTnA3/OSfWf3+PeqOrYD2WgycNY6fD5YfXGjuahZ2Qto78G0bu+yDZF6PkHVM5HiN0MlGpAZeXgCZH5VYWVo1BMTqb++dX+r0NtZySqF9X4Rnb9JTyCBC6OjVPFsmM73BM2ES6ITWDY/k9h6YZBlzbIHcDNx3hsqbDDV2nPga1zlBluCFYP48OZwZai+zAkHJJVI+nP0lxf1fu0VD6OoQNJiUJ7TV3TI+wQFyF6m7alLz7m+27XNy2/+cmTNOs/nkmr1AKGNuFccH5St3P7T3dBtiGPannM1Pfgse+i+5LDni6vTK0+atXVpar+wd69Q8U9vk9ux02eRtf6Pk0uW0ty6BpKcZtJG/0GAb0lTISKE3NjQvKiz1ULSBgcL5gM+VImNxOTHXV2gITtJH9Ap1AWPhmcmnmjN98cHy2MgMBNZY9FdR4fcaSSmJc+IPv9qbZXeQlGGmoPy88xVxk4fWLgb7ngQB34bfn5LXOHbNfCewGVW2wh6oyj5WJTLiueli5jDhczX7Onz4oRYUP5V0Tp1y//TW96Fgk8P4AgkDTamApong5AxT4hOQfzZ9Ge3e6JMcoOmDNXDlvEFusWlsZcTdskrSSE9ROmnIhKQ9qv1ILD/PpLbjDMC6aTgG1c9y+NJ79rZwUbRsM643p/SmHMYgksk3rEMM5BT+tXZDrCWOPHoO/mb/MyUzN8DCBL4EIAG7pXFdoS3ncDv1rpqRqRvpjxobud9efmGRrN1rE4Dty+dF3ApTrL1tse1hLp5UNHYGsi2q04biiEVDuYGT1ctjBDI3q/U+iR0BeNAe+lCyUykQ6cXHdHs3W5e0IOcPW2zrtAVCZ86E0RQp++wvUGe5P5U8SWQO3yDmF9e4mxCpzSVzfxITWV9XVEDPxklcdFySDq2cLlKOM1RT7PNjD9Y6tWAWFMtPPRi0GzTaTnh4OFYns3vYPgkLhaVEyBDmKEtRrmNDCVdIu+DtrWqD/28gjrMh/Nr190spmWzFHPQQsiSA1GZ+0Qsw9A8dg6AIrNvZ89jJLrvQaPH5FBsm8bd+tlZplCUUQdWIQQBppW4aUDhXmdFZVuTwWQv514Y0wG/FF4h0x74tRNLGczlvSf02u/00e1qij0wfDqi/IPX9rjBtm8ZP5K5X6Y5X5b3xkIHiA0F3bhSbZ6VO2XD56qShzzN7GZtWRaj1mo/pVmJyz2YwFji3kJ0prHhV/YB8dbfxLCNI3+z4YZFc0g52pZnj6k+c4KHKAQtBbRSIy/6ZrR1VClI2g5kWzm6EQ1v+7C4ESHD6m6RcmkxbB1Igo0HvxIHdPHgyJeSy9aU2mDU61vhYMftT4wXTj+wgrX6u1xzRtomqr7sOVzF+z2bAKsZvEYIr0nqgLHnptHjTUbFvI+Vb/CU8Q9v4ZfmYB8u3z9y/8GfKQcL5ccifWaLiOl+o8tXnTXVzVbMcsJY7mgNM4Zfwtdh/WjFhPAO9luR2FwdqLvsSUbB17DKKHR/o60g2sF76f9IDVR6+AtbsDBdpRWEqTi3aNQFnArv+rNaWpdZJl8TG5ojyCa95+eqgfB77LtLDksZFAy2nxr37yEsjqxNMCSCPrAjazm1F41TI5XyVqvoPjkJe8d7IjMlon+PjWmt0UXIgmLUR1ye4DkgcGOsiqhGUyGv7envMDsLd+YXKluMpM3KfPpmgm8je2b0UZXNnkIbY3hgk3xNfFxA2QCXwX4apERoH3dqDnvtOhYxXAHqADUC0iWs8k1EhOZT+iVW/XFX7vE/ss5LA1dXlH+LRrEZ5s1ev7+HLrXGKXlslMSw6NGpae+J0Qcp2xvN2GMmMvfKp5gJOTnb/Bgs6NtFXPFgW+H9qlqMCl2FsaBdxoNinGsDdrkarTZj0RfUUdV3TGMIMPp8/7VfbJyfrKimJ+aN5Pho/crkMJ8KtGvAChG0LEHXCjEUpF/FGp1rWCXGMvG6Mj+fHDmkNwjVzhfYm8ZH9Tww8wYkgvWZxSYAuIl9L3pR1S9syRUcfz+CmxSrdZ2xMuLoyo87vHBw9XOtnmB/RiIvzMuIMlA0GCeinsN3vrQz4MavN4pbP2zfF8cPLyHKohecII/t6SKDtFWAb1u5MQWLvilnwuXGhDqJI7PHjPHCgEd5+Dd85kNNp21lRvI1/qDddOCHbyKvdb1njRNK/Wd4jukNLoHnjUa57JK71WFtejjfKBZDc7IskXK24fYK+xv6RFNIzITNe7yt3HrVReAdw6Cvwn5HcTHzcZCG7IaVEldgm7pAUDFidi6i39ISq740QC/Jtv/Gy6KvfsUWG1vfA1sC/monLawu05UH4ACSiWI0115HlVicMg7l+fGKearcfkjlEr9HsPC1dI9Y8JVZJJO69OoNAezw52B03hp9D6e2HC3ZbW151Co8qmwvm5B76NllwsVWh344pK6vsazuH194jii+VUyXsB3oitDblTfpwoHyJleCXEaCU6P0EPaY7rPQNfP2mM6GoiOsVqaMASX68UZEcyBfYRtOHsiR7wFzqrKs/2aE0UCdn2TW05BLSsW804Jk3sEpNS0dLoJwBq2H4u1fdjMws799xk9yaBVLLCgNcKt03ZxQzKHu+N8i9eSX3fsJ40PGoMqnuJPjyb8u5ex9gQKR6TdemlVhVHBgSO49HCnF0dJwU9szhXdve3W3ByydngEzJRu/NPolwwS8TwXekaE0wXJn5hZsC4HBV9Jt5/LkzmsciL8vdIacPc9lVz/HrH3wgr3BlXDMdRUsFv5xxB7s0ZdVYKmFitNA6K60VAwxKg8Q41c1TUUpsniLn+hpy71RBZM7bdvNawAj1nbtjLgyBXQjULP8zq5qKa/LM2liCTAb2zDI7UgI3YFUTTn7vm+tFy67mwKF3LH6bPr///jL04WBlgaRK9ezNrQu+LPht9Nw25yVZLIgzCSmKDpbcnvT3RZk2u0NlG6fK+4GJH2LMCrY0+k19YToYmJ4k+UQzvSKn0mxjqhd+kuq6PcZiSj8xauSMqnh01KakrYHGB5rBIf/SfdQdwVNtTm1pQaebkaG7hi2ZxpPkcFgOrenZmbXJNsnq0GOlD5eRKD6CQ4RE7WwV8UgkWcHpEt6REb53YC/x14FKJEbM0ncGaF0TzZKcrSpNDTQZnpGjpxN4ajwN32HgVzNwYuFfd2W9usiNXwEl5OX2EKmeeIZLuruiPxPFTUnkqfFr45W32p/8bLyLdANkyE1BotBoHUEyrKUYro0yJm9Fh6PhQk6ZE6FcdQuxZnwnRTYpIujtCVDgJfSt0+EMPJN2sunI93zNwn6YCBixtbirsdeVwmaYAHAHIoWZeVG3Qdd6RvWJsPQAqdsKvBScFPs57+J8MqgJoBDJrIy787hQogqmBOughvrnXDIWKujVlXrqXhYMmAxEm3t2gs8UXr+tobXcW7c0ybrh+YnimzNcVJqSAkyHSGQJMF+6ypITsDtaJIao2w4E7/jNGq0o2W4e99KaQEod9x9O6zJS/NTiR7NwSf11YT9Xly1DZ1sNp2O/KJ9NOzUj8yok1/NVJGeZJMDUAAAA&quot;,&quot;width&quot;:&quot;640&quot;,&quot;height&quot;:&quot;640&quot;,&quot;x&quot;:0,&quot;y&quot;:0}" math="0" shadow="0">
      <root>
        <mxCell id="WIyWlLk6GJQsqaUBKTNV-0" />
        <mxCell id="WIyWlLk6GJQsqaUBKTNV-1" parent="WIyWlLk6GJQsqaUBKTNV-0" />
        <mxCell id="hCaZ6j3EOnIzewQBJug4-0" value="START" style="ellipse;whiteSpace=wrap;html=1;" vertex="1" parent="WIyWlLk6GJQsqaUBKTNV-1">
          <mxGeometry x="300" y="50" width="120" height="80" as="geometry" />
        </mxCell>
        <mxCell id="hCaZ6j3EOnIzewQBJug4-1" value="" style="endArrow=classic;html=1;rounded=0;" edge="1" parent="WIyWlLk6GJQsqaUBKTNV-1" target="hCaZ6j3EOnIzewQBJug4-2">
          <mxGeometry width="50" height="50" relative="1" as="geometry">
            <mxPoint x="360" y="130" as="sourcePoint" />
            <mxPoint x="360" y="200" as="targetPoint" />
          </mxGeometry>
        </mxCell>
        <mxCell id="hCaZ6j3EOnIzewQBJug4-2" value="pobierz a" style="rounded=0;whiteSpace=wrap;html=1;" vertex="1" parent="WIyWlLk6GJQsqaUBKTNV-1">
          <mxGeometry x="300" y="180" width="120" height="60" as="geometry" />
        </mxCell>
        <mxCell id="hCaZ6j3EOnIzewQBJug4-3" value="" style="endArrow=classic;html=1;rounded=0;" edge="1" parent="WIyWlLk6GJQsqaUBKTNV-1" target="hCaZ6j3EOnIzewQBJug4-4">
          <mxGeometry width="50" height="50" relative="1" as="geometry">
            <mxPoint x="360" y="240" as="sourcePoint" />
            <mxPoint x="360" y="300" as="targetPoint" />
          </mxGeometry>
        </mxCell>
        <mxCell id="hCaZ6j3EOnIzewQBJug4-4" value="sprawdz czy jest palindromem" style="rhombus;whiteSpace=wrap;html=1;" vertex="1" parent="WIyWlLk6GJQsqaUBKTNV-1">
          <mxGeometry x="300" y="290" width="120" height="120" as="geometry" />
        </mxCell>
        <mxCell id="hCaZ6j3EOnIzewQBJug4-5" value="" style="endArrow=classic;html=1;rounded=0;" edge="1" parent="WIyWlLk6GJQsqaUBKTNV-1">
          <mxGeometry width="50" height="50" relative="1" as="geometry">
            <mxPoint x="420" y="350" as="sourcePoint" />
            <mxPoint x="510" y="350" as="targetPoint" />
          </mxGeometry>
        </mxCell>
        <mxCell id="hCaZ6j3EOnIzewQBJug4-9" value="TAK" style="edgeLabel;html=1;align=center;verticalAlign=middle;resizable=0;points=[];" vertex="1" connectable="0" parent="hCaZ6j3EOnIzewQBJug4-5">
          <mxGeometry x="-0.6444" relative="1" as="geometry">
            <mxPoint as="offset" />
          </mxGeometry>
        </mxCell>
        <mxCell id="hCaZ6j3EOnIzewQBJug4-6" value="" style="endArrow=classic;html=1;rounded=0;" edge="1" parent="WIyWlLk6GJQsqaUBKTNV-1">
          <mxGeometry width="50" height="50" relative="1" as="geometry">
            <mxPoint x="300" y="350" as="sourcePoint" />
            <mxPoint x="220" y="350" as="targetPoint" />
          </mxGeometry>
        </mxCell>
        <mxCell id="hCaZ6j3EOnIzewQBJug4-7" value="NIE" style="edgeLabel;html=1;align=center;verticalAlign=middle;resizable=0;points=[];" vertex="1" connectable="0" parent="hCaZ6j3EOnIzewQBJug4-6">
          <mxGeometry x="-0.5" relative="1" as="geometry">
            <mxPoint as="offset" />
          </mxGeometry>
        </mxCell>
        <mxCell id="hCaZ6j3EOnIzewQBJug4-12" style="edgeStyle=orthogonalEdgeStyle;rounded=0;orthogonalLoop=1;jettySize=auto;html=1;exitX=0.5;exitY=1;exitDx=0;exitDy=0;" edge="1" parent="WIyWlLk6GJQsqaUBKTNV-1" source="hCaZ6j3EOnIzewQBJug4-10">
          <mxGeometry relative="1" as="geometry">
            <mxPoint x="570" y="440" as="targetPoint" />
          </mxGeometry>
        </mxCell>
        <mxCell id="hCaZ6j3EOnIzewQBJug4-10" value="slowo jest palindromem" style="rounded=0;whiteSpace=wrap;html=1;" vertex="1" parent="WIyWlLk6GJQsqaUBKTNV-1">
          <mxGeometry x="510" y="320" width="120" height="60" as="geometry" />
        </mxCell>
        <mxCell id="hCaZ6j3EOnIzewQBJug4-13" value="STOP" style="ellipse;whiteSpace=wrap;html=1;" vertex="1" parent="WIyWlLk6GJQsqaUBKTNV-1">
          <mxGeometry x="510" y="440" width="120" height="80" as="geometry" />
        </mxCell>
        <mxCell id="hCaZ6j3EOnIzewQBJug4-15" style="edgeStyle=orthogonalEdgeStyle;rounded=0;orthogonalLoop=1;jettySize=auto;html=1;exitX=0.5;exitY=1;exitDx=0;exitDy=0;entryX=0;entryY=0.5;entryDx=0;entryDy=0;" edge="1" parent="WIyWlLk6GJQsqaUBKTNV-1" source="hCaZ6j3EOnIzewQBJug4-14" target="hCaZ6j3EOnIzewQBJug4-13">
          <mxGeometry relative="1" as="geometry">
            <mxPoint x="160" y="430" as="targetPoint" />
          </mxGeometry>
        </mxCell>
        <mxCell id="hCaZ6j3EOnIzewQBJug4-14" value="slowo nie jest palindromem" style="rounded=0;whiteSpace=wrap;html=1;" vertex="1" parent="WIyWlLk6GJQsqaUBKTNV-1">
          <mxGeometry x="100" y="320" width="120" height="60" as="geometry" />
        </mxCell>
      </root>
    </mxGraphModel>
  </diagram>
</mxfile>
